SplineFontDB: 3.0
FontName: Oswald-HeavyPole
FullName: Oswald-HeavyPole
FamilyName: Oswald
Weight: Heavy
Version: 1
ItalicAngle: 0
UnderlinePosition: -240
UnderlineWidth: 125
Ascent: 1638
Descent: 410
UFOAscent: 1626
UFODescent: -250
LayerCount: 2
Layer: 0 0 "Back"  1
Layer: 1 0 "Fore"  0
OS2Version: 0
OS2_WeightWidthSlopeOnly: 0
OS2_UseTypoMetrics: 0
CreationTime: 1369177195
ModificationTime: 1369177496
PfmFamily: 0
TTFWeight: 800
TTFWidth: 5
LineGap: 0
VLineGap: 0
OS2TypoAscent: 2444
OS2TypoAOffset: 0
OS2TypoDescent: -591
OS2TypoDOffset: 0
OS2TypoLinegap: 0
OS2WinAscent: 2444
OS2WinAOffset: 0
OS2WinDescent: 591
OS2WinDOffset: 0
HheadAscent: 0
HheadAOffset: 1
HheadDescent: 0
HheadDOffset: 1
OS2Vendor: 'newt'
Lookup: 258 0 0 "'kern' Horizontal Kerning in Latin lookup 0"  {"'kern' Horizontal Kerning in Latin lookup 0 subtable"  } ['kern' ('latn' <'dflt' > ) ]
Lookup: 258 0 0 "kernHorizontalKerninginLatinloo"  {"kernHorizontalKerninginLatinloo subtable"  } ['kern' ('latn' <'dflt' > ) ]
Lookup: 258 0 0 "pos_pair_kernlatn_0"  {"pos_pair_kernlatn_0 subtable"  } ['kern' ('latn' <'dflt' > ) ]
Lookup: 258 0 0 "pos_pair_kernlatn_2"  {"pos_pair_kernlatn_2 subtable"  } ['kern' ('latn' <'dflt' > ) ]
Lookup: 258 0 0 "pos_pair_kernlatn_4"  {"pos_pair_kernlatn_4 subtable"  } ['kern' ('latn' <'dflt' > ) ]
DEI: 91125
LangName: 1033 "" "" "" "" "" "Version 1" 
Encoding: Oswald_latin_Cyrillic
UnicodeInterp: none
NameList: AGL For New Fonts
DisplaySize: -48
AntiAlias: 1
FitToEm: 1
WinInfo: 270 27 12
BeginPrivate: 4
BlueValues 27 [-66 0 2923 2989 4199 4257]
OtherBlues 11 [-959 -939]
BlueShift 1 0
BlueScale 19 0.08945421317038466
EndPrivate
BeginChars: 65541 568

StartChar: A
Encoding: 33 65 0
Width: 1076
VWidth: 0
GlyphClass: 2
Flags: W
LayerCount: 2
Fore
SplineSet
0 0 m 1
 298 1626 l 1
 780 1626 l 1
 1076 0 l 1
 699 0 l 1
 623 492 l 1
 541 1147 l 1
 461 492 l 1
 389 0 l 1
 0 0 l 1
256 328 m 1
 295 564 l 1
 792 564 l 1
 841 328 l 1
 256 328 l 1
EndSplineSet
EndChar

StartChar: AE
Encoding: 134 198 1
Width: 1539
VWidth: 0
GlyphClass: 2
Flags: W
LayerCount: 2
Fore
SplineSet
52 0 m 1
 470 0 l 1
 598 321 l 1
 852 321 l 1
 852 0 l 1
 1522 0 l 1
 1522 275 l 1
 1198 275 l 1
 1198 713 l 1
 1426 713 l 1
 1426 999 l 1
 1198 999 l 1
 1198 1349 l 1
 1522 1349 l 1
 1522 1626 l 1
 782 1626 l 1
 52 0 l 1
678 572 m 1
 852 1044 l 1
 852 572 l 1
 678 572 l 1
EndSplineSet
EndChar

StartChar: B
Encoding: 34 66 11
Width: 1184
VWidth: 0
GlyphClass: 2
Flags: W
LayerCount: 2
Fore
SplineSet
308 0 m 1
 622 0 l 2
 948 0 1155 130 1149 493 c 0
 1145 727 1040 862 852 878 c 1
 997 908 1090 1001 1095 1199 c 0
 1105 1597 817 1626 539 1626 c 2
 308 1626 l 1
 308 1356 l 1
 569 1356 l 2
 672 1356 735 1284 735 1188 c 0
 735 1068 707 992 552 992 c 2
 308 992 l 1
 308 730 l 1
 555 730 l 2
 703 730 751 678 751 500 c 0
 751 359 701 287 552 287 c 2
 308 287 l 1
 308 0 l 1
EndSplineSet
Refer: 381 -1 N 1 0 0 1 7 0 2
EndChar

StartChar: C
Encoding: 35 67 12
Width: 1143
VWidth: 0
GlyphClass: 2
Flags: W
HStem: -35 284<528 618 528 766.5> 1368 284<528 618>
VStem: 65 411 669 411
LayerCount: 2
Fore
SplineSet
573 -35 m 0
 960 -35 1075 193 1075 468 c 2
 1075 575 l 1
 669 575 l 1
 669 409 l 2
 669 343 663 249 573 249 c 0
 483 249 477 343 477 409 c 2
 477 1209 l 2
 477 1275 483 1368 573 1368 c 0
 663 1368 669 1275 669 1209 c 2
 669 1046 l 1
 1075 1046 l 1
 1075 1149 l 2
 1075 1424 960 1652 573 1652 c 0
 186 1652 66 1424 66 1077 c 2
 66 540 l 2
 66 193 186 -35 573 -35 c 0
EndSplineSet
EndChar

StartChar: D
Encoding: 36 68 18
Width: 1185
VWidth: 0
GlyphClass: 2
Flags: W
HStem: 0 284<384 525 525 541 384 753> 1367 284
VStem: 683 428
LayerCount: 2
Fore
SplineSet
384 1342 m 1
 541 1342 l 2
 676 1342 690 1300 690 1192 c 2
 690 435 l 2
 690 327 676 284 541 284 c 2
 384 284 l 1
 384 0 l 1
 525 0 l 2
 981 0 1121 149 1119 530 c 1
 1119 1096 l 2
 1119 1477 981 1626 525 1626 c 2
 384 1626 l 1
 384 1342 l 1
EndSplineSet
Refer: 381 -1 N 1 0 0 1 7 0 2
EndChar

StartChar: E
Encoding: 37 69 21
Width: 887
VWidth: 0
GlyphClass: 2
Flags: W
LayerCount: 2
Fore
SplineSet
297 0 m 1
 853 0 l 1
 853 275 l 1
 297 275 l 1
 297 0 l 1
297 713 m 1
 754 713 l 1
 754 999 l 1
 297 999 l 1
 297 713 l 1
297 1350 m 1
 849 1350 l 1
 849 1626 l 1
 297 1626 l 1
 297 1350 l 1
EndSplineSet
Refer: 381 -1 N 1 0 0 1 7 0 2
EndChar

StartChar: Eng
Encoding: 263 330 29
Width: 1106
VWidth: 0
GlyphClass: 2
Flags: W
LayerCount: 2
Fore
SplineSet
88 0 m 1
 442 0 l 1
 442 767 l 1
 736 0 l 1
 1018 0 l 1
 1018 1626 l 1
 677 1626 l 1
 677 962 l 1
 381 1626 l 1
 88 1626 l 1
 88 0 l 1
421 -444 m 1
 622 -444 l 2
 942 -444 1018 -291 1018 1 c 1
 643 432 l 1
 643 -48 l 2
 643 -167 596 -210 421 -207 c 1
 421 -444 l 1
EndSplineSet
EndChar

StartChar: Eth
Encoding: 144 208 31
Width: 1185
VWidth: 0
GlyphClass: 2
Flags: W
LayerCount: 2
Fore
SplineSet
10 746 m 1
 581 746 l 1
 581 946 l 1
 10 946 l 1
 10 746 l 1
EndSplineSet
Refer: 18 68 N 1 0 0 1 0 0 2
EndChar

StartChar: Euro
Encoding: 510 8364 32
Width: 1191
VWidth: 0
GlyphClass: 2
Flags: W
HStem: -35 284 1368 284
VStem: 113 411 717 411
LayerCount: 2
Fore
SplineSet
696 657 m 1
 696 771 l 1
 236 771 l 1
 236 865 l 1
 696 865 l 1
 696 979 l 1
 28 979 l 1
 28 865 l 1
 172 865 l 1
 172 771 l 1
 28 771 l 1
 28 657 l 1
 696 657 l 1
EndSplineSet
Refer: 12 67 N 1 0 0 1 48 0 2
EndChar

StartChar: F
Encoding: 38 70 33
Width: 825
VWidth: 0
GlyphClass: 2
Flags: W
LayerCount: 2
Fore
SplineSet
311 713 m 1
 774 713 l 1
 774 999 l 1
 311 999 l 1
 311 713 l 1
304 1350 m 1
 821 1350 l 1
 821 1626 l 1
 304 1626 l 1
 304 1350 l 1
EndSplineSet
Refer: 381 -1 N 1 0 0 1 7 0 2
EndChar

StartChar: G
Encoding: 39 71 34
Width: 1173
VWidth: 0
GlyphClass: 2
Flags: W
LayerCount: 2
Fore
SplineSet
530 -36 m 0
 876 -36 887 346 887 468 c 2
 887 575 l 1
 705 575 l 1
 705 409 l 2
 705 343 680 249 590 249 c 0
 500 249 478 343 478 409 c 2
 478 1209 l 2
 478 1275 484 1368 574 1368 c 0
 664 1368 670 1275 670 1209 c 2
 670 1046 l 1
 1076 1046 l 1
 1076 1149 l 2
 1076 1424 961 1652 574 1652 c 0
 187 1652 67 1424 67 1077 c 2
 67 540 l 2
 67 205 175 -36 530 -36 c 0
800 0 m 1
 1068 0 l 1
 1068 875 l 1
 575 875 l 1
 575 640 l 1
 705 640 l 1
 705 569 l 1
 800 0 l 1
EndSplineSet
EndChar

StartChar: H
Encoding: 40 72 39
Width: 1168
VWidth: 0
GlyphClass: 2
Flags: W
LayerCount: 2
Fore
SplineSet
301 709 m 1
 874 709 l 1
 874 1004 l 1
 301 1004 l 1
 301 709 l 1
EndSplineSet
Refer: 381 -1 N 1 0 0 1 7 0 2
Refer: 381 -1 N 1 0 0 1 587 0 2
EndChar

StartChar: Hbar
Encoding: 228 294 40
Width: 1092
VWidth: 0
GlyphClass: 2
Flags: W
LayerCount: 2
Fore
SplineSet
1137.5 1257 m 1
 1137.5 1369 l 1
 -45.5 1369 l 1
 -45.5 1257 l 1
 1137.5 1257 l 1
EndSplineSet
Refer: 39 72 N 1 0 0 1 -38 0 2
EndChar

StartChar: J
Encoding: 42 74 53
Width: 681
VWidth: 0
GlyphClass: 2
Flags: W
LayerCount: 2
Fore
SplineSet
-4 -44 m 1
 197 -44 l 2
 517 -44 593 109 593 401 c 1
 181 401 l 1
 181 282 128 239 -4 242 c 1
 -4 -44 l 1
EndSplineSet
Refer: 382 -1 N 1 0 0 1 100 0 2
EndChar

StartChar: K
Encoding: 43 75 55
Width: 1146
VWidth: 0
GlyphClass: 2
Flags: W
LayerCount: 2
Fore
SplineSet
307 458 m 1
 519 694 l 1
 730 0 l 1
 1155 0 l 1
 853 884 l 1
 1153 1626 l 1
 747 1626 l 1
 307 496 l 1
 307 458 l 1
EndSplineSet
Refer: 381 -1 N 1 0 0 1 7 0 2
EndChar

StartChar: L
Encoding: 44 76 57
Width: 916
VWidth: 0
GlyphClass: 2
Flags: W
LayerCount: 2
Fore
SplineSet
297 0 m 1
 867 0 l 1
 867 275 l 1
 297 275 l 1
 297 0 l 1
EndSplineSet
Refer: 381 -1 N 1 0 0 1 7 0 2
EndChar

StartChar: Lslash
Encoding: 255 321 62
Width: 960
VWidth: 0
GlyphClass: 2
Flags: W
LayerCount: 2
Fore
SplineSet
752 997 m 1
 752 1205 l 1
 26 876 l 1
 26 668 l 1
 752 997 l 1
EndSplineSet
Refer: 57 76 N 1 0 0 1 44 0 2
EndChar

StartChar: M
Encoding: 45 77 63
Width: 1396
VWidth: 0
GlyphClass: 2
Flags: W
LayerCount: 2
Fore
SplineSet
76 0 m 1
 366 0 l 1
 394 1049 l 1
 573 0 l 1
 837 0 l 1
 1002 1039 l 1
 1034 0 l 1
 1320 0 l 1
 1293 1626 l 1
 861 1626 l 1
 698 792 l 1
 553 1626 l 1
 103 1626 l 1
 76 0 l 1
EndSplineSet
EndChar

StartChar: N
Encoding: 46 78 64
Width: 1106
VWidth: 0
GlyphClass: 2
Flags: W
LayerCount: 2
Fore
SplineSet
88 0 m 1
 442 0 l 1
 442 767 l 1
 736 0 l 1
 1018 0 l 1
 1018 1626 l 1
 677 1626 l 1
 677 962 l 1
 381 1626 l 1
 88 1626 l 1
 88 0 l 1
EndSplineSet
EndChar

StartChar: O
Encoding: 47 79 69
Width: 1147
VWidth: 0
GlyphClass: 2
Flags: W
HStem: -35 284<528 618 528 766.5> 1368 284<528 618>
VStem: 65 411 669 411
LayerCount: 2
Fore
SplineSet
573 249 m 0
 483 249 477 343 477 409 c 2
 477 1209 l 2
 477 1275 483 1368 573 1368 c 0
 663 1368 669 1275 669 1209 c 2
 669 409 l 2
 669 343 663 249 573 249 c 0
573 -35 m 0
 960 -35 1081 193 1081 540 c 2
 1081 1077 l 2
 1081 1424 960 1652 573 1652 c 0
 186 1652 66 1424 66 1077 c 2
 66 540 l 2
 66 193 186 -35 573 -35 c 0
EndSplineSet
EndChar

StartChar: OE
Encoding: 271 338 70
Width: 1441
VWidth: 0
GlyphClass: 2
Flags: W
VStem: 66 412<487 591 591 1046>
LayerCount: 2
Fore
SplineSet
575 0 m 2
 1407 0 l 1
 1407 275 l 1
 1083 275 l 1
 1083 713 l 1
 1312 713 l 1
 1312 999 l 1
 1083 999 l 1
 1083 1375 l 1
 1407 1375 l 1
 1407 1650 l 1
 575 1650 l 1
 187 1649 66 1376 66 1046 c 2
 66 591 l 2
 66 242 195 0 575 0 c 2
575 280 m 1
 483 279 478 413 478 487 c 2
 478 1150 l 2
 478 1221 484 1359 575 1359 c 2
 672 1359 l 1
 672 280 l 1
 575 280 l 1
EndSplineSet
EndChar

StartChar: Oslash
Encoding: 152 216 78
Width: 1147
VWidth: 0
GlyphClass: 2
Flags: W
LayerCount: 2
Fore
SplineSet
137 -162 m 1
 216 -197 l 1
 1028 1779 l 1
 949 1814 l 1
 137 -162 l 1
EndSplineSet
Refer: 69 79 N 1 0 0 1 0 0 2
EndChar

StartChar: P
Encoding: 48 80 80
Width: 1170
VWidth: 0
GlyphClass: 2
Flags: W
LayerCount: 2
Fore
SplineSet
309 670 m 1
 636 670 l 2
 905 670 1142 724 1142 1148 c 0
 1142 1462 993 1626 695 1626 c 2
 309 1626 l 1
 309 1338 l 1
 627 1338 l 2
 746 1338 756 1244 756 1157 c 0
 756 1024 746 955 631 955 c 2
 309 955 l 1
 309 670 l 1
EndSplineSet
Refer: 381 -1 N 1 0 0 1 7 0 2
EndChar

StartChar: Q
Encoding: 49 81 81
Width: 1151
VWidth: 0
GlyphClass: 2
Flags: W
HStem: -35 284 1368 284
VStem: 65 411 669 411
LayerCount: 2
Fore
SplineSet
1012 -282 m 1
 1012 -94 l 1
 886 -33 666 124 644 157 c 1
 606 -20 l 1
 696 -121 907 -242 1012 -282 c 1
EndSplineSet
Refer: 69 79 N 1 0 0 1 0 0 2
EndChar

StartChar: R
Encoding: 50 82 82
Width: 1227
VWidth: 0
GlyphClass: 2
Flags: W
LayerCount: 2
Fore
SplineSet
294 701 m 1
 568 701 l 1
 789 0 l 1
 1213 0 l 1
 940 763 l 1
 1109 851 1172 980 1172 1187 c 0
 1172 1546 944 1626 611 1626 c 2
 294 1626 l 1
 294 1329 l 1
 621 1329 l 2
 736 1329 785 1281 785 1155 c 0
 785 1033 752 976 611 976 c 2
 294 976 l 1
 294 701 l 1
EndSplineSet
Refer: 381 -1 N 1 0 0 1 7 0 2
EndChar

StartChar: S
Encoding: 51 83 86
Width: 989
VWidth: 0
GlyphClass: 2
Flags: W
HStem: -37 310<463.5 525 463.5 658> 1376 313<481 533.5>
VStem: 32 404<1191.5 1281.5 1191.5 1368> 32 350<503 503> 558 409<352 436>
LayerCount: 2
Fore
SplineSet
520 -37 m 0
 796 -37 967 155 967 387 c 0
 967 623 850 765 703 896 c 2
 614 975 l 2
 533 1047 436 1120 436 1263 c 0
 436 1300 454 1376 508 1376 c 0
 559 1376 576 1325 576 1253 c 2
 576 1153 l 1
 934 1187 l 1
 934 1264 l 2
 934 1489 795 1689 533 1689 c 0
 231 1689 32 1514 32 1222 c 0
 32 993 147 878 277 767 c 2
 374 684 l 2
 491 584 558 504 558 368 c 0
 558 336 556 273 494 273 c 0
 433 273 382 319 382 547 c 1
 32 503 l 1
 42 104 198 -37 520 -37 c 0
EndSplineSet
EndChar

StartChar: T
Encoding: 52 84 92
Width: 887
VWidth: 0
GlyphClass: 2
Flags: W
LayerCount: 2
Fore
SplineSet
866 1321 m 1
 866 1626 l 1
 21 1626 l 1
 21 1321 l 1
 866 1321 l 1
EndSplineSet
Refer: 381 -1 N 1 0 0 1 155 0 2
EndChar

StartChar: Tbar
Encoding: 291 358 93
Width: 887
VWidth: 0
GlyphClass: 2
Flags: W
LayerCount: 2
Fore
SplineSet
62 933 m 1
 62 741 l 1
 827 741 l 1
 827 933 l 1
 62 933 l 1
EndSplineSet
Refer: 92 84 N 1 0 0 1 0 0 2
EndChar

StartChar: Thorn
Encoding: 158 222 96
Width: 1077
VWidth: 0
GlyphClass: 2
Flags: W
VStem: 693 372<903 1033.5>
LayerCount: 2
Fore
SplineSet
306 491 m 1
 532 492 l 2
 894.002 493.355 1065 575 1065 994 c 0
 1065 1338 890 1448 542 1448 c 2
 306 1448 l 1
 306 1161 l 1
 524 1160 l 2
 649 1160 693 1096 693 971 c 0
 693 835 649 777 520 777 c 2
 306 777 l 1
 306 491 l 1
EndSplineSet
Refer: 381 -1 N 1 0 0 1 7 0 2
EndChar

StartChar: U
Encoding: 53 85 97
Width: 1169
VWidth: 0
GlyphClass: 2
Flags: W
LayerCount: 2
Fore
SplineSet
584 -35 m 0
 971 -35 1092 193 1092 540 c 2
 1092 1626 l 1
 680 1626 l 1
 680 409 l 2
 680 343 674 249 584 249 c 0
 494 249 488 343 488 409 c 2
 488 1626 l 1
 77 1626 l 1
 77 540 l 2
 77 193 197 -35 584 -35 c 0
EndSplineSet
EndChar

StartChar: V
Encoding: 54 86 108
Width: 977
VWidth: 0
GlyphClass: 2
Flags: W
LayerCount: 2
Fore
SplineSet
293 0 m 1
 646 0 l 1
 967 1626 l 1
 590 1626 l 1
 478 848 l 1
 393 1626 l 1
 11 1626 l 1
 293 0 l 1
EndSplineSet
EndChar

StartChar: W
Encoding: 55 87 109
Width: 1336
VWidth: 0
GlyphClass: 2
Flags: W
LayerCount: 2
Fore
SplineSet
227 0 m 1
 561 0 l 1
 661 925 l 1
 771 0 l 1
 1105 0 l 1
 1318 1626 l 1
 971 1626 l 1
 913 698 l 1
 797 1626 l 1
 527 1626 l 1
 416 689 l 1
 364 1626 l 1
 18 1626 l 1
 227 0 l 1
EndSplineSet
EndChar

StartChar: X
Encoding: 56 88 114
Width: 1018
VWidth: 0
GlyphClass: 2
Flags: W
LayerCount: 2
Fore
SplineSet
-12 0 m 1
 321 0 l 1
 522 542 l 1
 716 673 l 1
 1003 1626 l 1
 666 1626 l 1
 493 1010 l 1
 316 919 l 1
 -12 0 l 1
661 0 m 1
 1047 0 l 1
 397 1626 l 1
 5 1626 l 1
 661 0 l 1
EndSplineSet
EndChar

StartChar: Y
Encoding: 57 89 115
Width: 979
VWidth: 0
GlyphClass: 2
Flags: W
LayerCount: 2
Fore
SplineSet
289 0 m 1
 685 0 l 1
 685 560 l 1
 980 1626 l 1
 608 1626 l 1
 503 1067 l 1
 383 1626 l 1
 -1 1626 l 1
 289 560 l 1
 289 0 l 1
EndSplineSet
EndChar

StartChar: Z
Encoding: 58 90 120
Width: 922
VWidth: 0
GlyphClass: 2
Flags: W
LayerCount: 2
Fore
SplineSet
68 0 m 1
 844 0 l 1
 844 275 l 1
 465 275 l 1
 844 1385 l 1
 844 1626 l 1
 114 1626 l 1
 114 1350 l 1
 444 1350 l 1
 68 239 l 1
 68 0 l 1
EndSplineSet
EndChar

StartChar: a
Encoding: 65 97 124
Width: 954
VWidth: 0
GlyphClass: 2
Flags: W
LayerCount: 2
Fore
SplineSet
316 -27 m 0
 439 -30 527 57 556 159 c 1
 592 0 l 1
 931 0 l 1
 908 112 886 240 880 400 c 1
 880 921 l 2
 880 1117 723 1245 511 1245 c 0
 212 1245 93 1128 69 836 c 2
 64 774 l 1
 407 760 l 1
 418 886 l 2
 421 922 430 955 474 955 c 0
 514 955 527 921 527 886 c 2
 527 726 l 1
 363 658 41 591 32 275 c 0
 28 134 123 -23 316 -27 c 0
451 212 m 0
 404 212 362 256 362 330 c 0
 362 400 416 526 527 578 c 1
 527 256 l 1
 505 226 477 212 451 212 c 0
EndSplineSet
EndChar

StartChar: acute
Encoding: 116 180 128
Width: 650
VWidth: 0
GlyphClass: 2
Flags: W
LayerCount: 2
Fore
SplineSet
108 1281 m 1
 351 1281 l 1
 619 1696 l 1
 236 1696 l 1
 108 1281 l 1
EndSplineSet
EndChar

StartChar: acutecomb
Encoding: 368 769 129
Width: 0
VWidth: 0
GlyphClass: 2
Flags: W
HStem: 1281 415<-89 26 26 26>
LayerCount: 2
Fore
SplineSet
-217 1281 m 1
 26 1281 l 1
 294 1696 l 1
 -89 1696 l 1
 -217 1281 l 1
EndSplineSet
EndChar

StartChar: ae
Encoding: 166 230 131
Width: 1352
VWidth: 0
GlyphClass: 2
Flags: W
HStem: -27 245<418 439.5> 603 161<878 879>
VStem: 52 318<303.5 337.5 303.5 460.5> 531 347<764 844 699 902> 1016 303<859 994>
LayerCount: 2
Fore
SplineSet
383 -27 m 0
 496 -27 635 25 684 135 c 1
 714 22 865.001 -27.4355 960 -27 c 0
 1178 -26 1302 92 1302 302 c 2
 1302 484 l 1
 965 484 l 1
 965 345 l 1
 966.178 276.69 971.138 232 925 232 c 0
 885 232 879 266 879 346 c 2
 879 603 l 1
 1053 634 1319 699 1319 949 c 0
 1319 1079 1204 1245 963 1245 c 0
 834 1245 722 1176 690 1084 c 1
 668 1174 571 1246 441 1246 c 0
 171 1246 50 1065 56 774 c 1
 414 774 l 1
 414 843 l 2
 414 952 531 954 531 844 c 2
 531 699 l 1
 353 668 52 638 52 283 c 0
 52 71 207 -27 383 -27 c 0
450 218 m 0
 386 218 370 289 370 318 c 0
 370 357 390 499 532 547 c 1
 534 317 l 2
 534 231 497 218 450 218 c 0
878 764 m 1
 878 902 l 1
 880.319 1031.91 1016 1067 1016 921 c 0
 1016 797 940 773 878 764 c 1
EndSplineSet
EndChar

StartChar: afii10021
Encoding: 398 1044 133
Width: 1419
VWidth: 0
GlyphClass: 2
Flags: W
HStem: -20 20<313 1104 1104 1104>
VStem: 356 380
LayerCount: 2
Fore
SplineSet
22 -281 m 1
 313 -281 l 1
 313 0 l 1
 1104 0 l 1
 1105 -281 l 1
 1427 -281 l 1
 1427 309 l 1
 22 309 l 1
 22 -281 l 1
EndSplineSet
Refer: 136 1051 N 0.971831 0 0 1 121 0 2
EndChar

StartChar: afii10024
Encoding: 400 1046 134
Width: 1684
VWidth: 0
GlyphClass: 2
Flags: W
HStem: 0 21<47 408 408 408 1276 1637 1637 1637> 0 1688
VStem: 672 64
LayerCount: 2
Fore
SplineSet
842 606 m 1
 842 720 l 1
 401 1626 l 1
 6 1626 l 1
 444 829 l 1
 47 0 l 1
 408 0 l 1
 692 675 l 1
 842 606 l 1
842 606 m 1
 992 675 l 1
 1276 0 l 1
 1637 0 l 1
 1240 829 l 1
 1678 1626 l 1
 1283 1626 l 1
 842 720 l 1
 842 606 l 1
EndSplineSet
Refer: 381 -1 N 0.864525 0 0 1 589 0 2
EndChar

StartChar: afii10025
Encoding: 401 1047 135
Width: 864
VWidth: 0
GlyphClass: 2
Flags: W
HStem: -24 51<317 474.5 317 533.5> 873 36<364 418 364 523> 1657 50<353.5 513>
VStem: 74 56<1321 1337> 705 68<300 549 1172.5 1401>
LayerCount: 2
Fore
SplineSet
399 -24 m 0
 668 -24 773 167 773 433 c 0
 773 744 625 871 537 888 c 1
 668 908 773 1035 773 1307 c 0
 773 1495 701 1707 437 1707 c 0
 159 1707 74 1519 74 1337 c 2
 74 1321 l 1
 130 1321 l 1
 130 1584 276 1657 431 1657 c 0
 595 1657 705 1596 705 1309 c 0
 705 1036 629 909 418 909 c 2
 364 909 l 1
 364 873 l 1
 418 873 l 2
 628 873 705 669 705 429 c 0
 705 89 550 27 399 27 c 0
 235 27 130 143 130 373 c 1
 75 373 l 1
 75 352 l 1
 73 181 156 -24 399 -24 c 0
EndSplineSet
EndChar

StartChar: afii10029
Encoding: 405 1051 136
Width: 1295
VWidth: 0
GlyphClass: 2
Flags: W
VStem: 242 391<723 1307 1048 1307 1048 1626>
LayerCount: 2
Fore
SplineSet
1005 1626 m 1
 242 1626 l 1
 242 1048 l 2
 242 398 216 306 12 306 c 1
 12 0 l 1
 585 0 633 235 633 1048 c 2
 633 1307 l 1
 1005 1307 l 1
 1005 1626 l 1
EndSplineSet
Refer: 381 -1 N 1 0 0 1 714 0 2
EndChar

StartChar: afii10037
Encoding: 413 1059 137
Width: 1147
VWidth: 0
GlyphClass: 2
Flags: W
HStem: 0 21<215 636 636 636> 689 20
VStem: 33 892
LayerCount: 2
Fore
SplineSet
791 504 m 1
 1161 1626 l 1
 779 1626 l 1
 593 1089 l 1
 410 1626 l 1
 6 1626 l 1
 372 554 l 1
 215 0 l 1
 636 0 l 1
 791 504 l 1
EndSplineSet
EndChar

StartChar: afii10038
Encoding: 414 1060 138
Width: 1462
VWidth: 0
GlyphClass: 2
Flags: W
HStem: 229 267<743 743 743 743> 1161 250<719 719 719 719>
VStem: 66 346<606 612 612 1029> 1050 346<568 1028 611 1028 1028 1034>
LayerCount: 2
Fore
SplineSet
719 1411 m 1
 354 1471 66 1283 66 1029 c 2
 66 612 l 2
 66 358 351 169 743 229 c 1
 743 496 l 1
 483 436 412 532 412 606 c 2
 412 1035 l 2
 412 1109 483 1221 719 1161 c 1
 719 1411 l 1
743 229 m 1
 1109 169 1396 357 1396 611 c 2
 1396 1028 l 2
 1396 1282 1109 1471 719 1411 c 1
 719 1161 l 1
 977 1221 1050 1108 1050 1034 c 2
 1050 605 l 2
 1050 531 978 436 743 496 c 1
 743 229 l 1
EndSplineSet
Refer: 381 -1 N 0.907187 0 0 1.00984 470 0 2
EndChar

StartChar: afii10040
Encoding: 416 1062 139
Width: 1258
VWidth: 0
GlyphClass: 2
Flags: W
LayerCount: 2
Fore
SplineSet
1271 -368 m 1
 1271 275 l 1
 306 275 l 1
 306 0 l 1
 952 0 l 1
 952 -368 l 1
 1271 -368 l 1
EndSplineSet
Refer: 381 -1 N 1 0 0 1 7 0 2
Refer: 381 -1 N 1 0 0 1 612 0 2
EndChar

StartChar: afii10041
Encoding: 417 1063 140
Width: 1203
VWidth: 0
GlyphClass: 2
Flags: W
HStem: 684 250<548 573.5>
LayerCount: 2
Fore
SplineSet
919 997 m 1
 875 967 761 934 640 934 c 0
 456 934 454 1006 454 1091 c 2
 454 1626 l 1
 42 1626 l 1
 42 1090 l 2
 42 830 282 684 531 684 c 0
 616 684 820 700 919 734 c 1
 919 997 l 1
EndSplineSet
Refer: 381 -1 N 1 0 0 1 622 0 2
EndChar

StartChar: afii10043
Encoding: 419 1065 142
Width: 1727
VWidth: 0
GlyphClass: 2
Flags: W
HStem: 0 105 1702 19
VStem: 65 152 747 153 1430 152
LayerCount: 2
Fore
SplineSet
1766 -368 m 1
 1766 275 l 1
 284 275 l 1
 284 0 l 1
 1447 0 l 1
 1447 -368 l 1
 1766 -368 l 1
EndSplineSet
Refer: 381 -1 N 0.93128 0 0 1 564.566 0 2
Refer: 381 -1 N 0.93128 0 0 1 1113 0 2
Refer: 381 -1 N 0.93128 0 0 1 12.5664 0 2
EndChar

StartChar: afii10044
Encoding: 420 1066 143
Width: 1244
VWidth: 0
GlyphClass: 2
Flags: W
HStem: 0 122 834 121 1702 19
VStem: 146 152 822 152
LayerCount: 2
Fore
SplineSet
0 1351 m 1
 425 1351 l 1
 425 1626 l 1
 0 1626 l 1
 0 1351 l 1
EndSplineSet
Refer: 381 -1 N 1 0 0 1 128 0 2
Refer: 214 -1 N 1 0 0 1 0 0 2
EndChar

StartChar: afii10047
Encoding: 423 1069 146
Width: 1143
VWidth: 0
GlyphClass: 2
Flags: W
HStem: -26 122 825 124 1623 122
VStem: 114 152 801 145
LayerCount: 2
Fore
SplineSet
416 720 m 1
 881 720 l 1
 881 914 l 1
 416 914 l 1
 416 720 l 1
EndSplineSet
Refer: 12 67 N -1 5.55112e-17 -5.55112e-17 -1 1143 1617 2
EndChar

StartChar: afii10048
Encoding: 424 1070 147
Width: 1688
VWidth: 0
GlyphClass: 2
Flags: W
HStem: -24 56 0 21 804 56 1652 55
VStem: 162 64 396 64 1136 64
LayerCount: 2
Fore
SplineSet
1148 249 m 0
 1063 249 1063 343 1063 409 c 2
 1063 1209 l 2
 1063 1275 1063 1368 1148 1368 c 0
 1233 1368 1233 1275 1233 1209 c 2
 1233 409 l 2
 1233 343 1233 249 1148 249 c 0
1148 -35 m 0
 1514 -35 1622 193 1622 540 c 2
 1622 1077 l 2
 1622 1424 1514 1652 1148 1652 c 0
 783 1652 675 1424 675 1077 c 2
 675 540 l 2
 675 193 783 -35 1148 -35 c 0
293 899 m 1
 293 656 l 1
 873 656 l 1
 873 655 l 1
 873 899 l 1
 293 899 l 1
EndSplineSet
Refer: 381 -1 N 1 0 0 1 7 0 2
EndChar

StartChar: afii10049
Encoding: 425 1071 148
Width: 1200
VWidth: 0
GlyphClass: 2
Flags: W
HStem: 1 20 840 122 1599 122
VStem: 172 152 848 152
LayerCount: 2
Fore
SplineSet
919 1626 m 1
 644 1626 l 2
 375 1626 60 1572 60 1148 c 0
 60 834 273 672 571 672 c 2
 919 672 l 1
 919 963 l 1
 640 963 l 2
 485 963 441 1038 441 1144 c 0
 441 1293 507 1346 636 1346 c 2
 919 1346 l 1
 919 1626 l 1
474 0 m 1
 662 794 l 1
 318 898 l 1
 78 0 l 1
 474 0 l 1
EndSplineSet
Refer: 381 -1 N 1 0 0 1 619 0 2
EndChar

StartChar: afii10053
Encoding: 383 1028 149
Width: 1129
VWidth: 0
GlyphClass: 2
Flags: W
HStem: -24 56 856 52 1652 55
VStem: 126 64 816 60
LayerCount: 2
Fore
SplineSet
278 723 m 1
 712 723 l 1
 712 932 l 1
 278 932 l 1
 278 723 l 1
EndSplineSet
Refer: 12 67 N 1 0 0 1 0 0 2
EndChar

StartChar: afii10066
Encoding: 427 1073 150
Width: 820
VWidth: 0
GlyphClass: 2
Flags: W
HStem: -20 50<422 422> 1122 50<449 533.5>
VStem: 148 64<184 991 291 991 1046 1205 1205 1207> 642 64<322 666 494 666 666 667>
LayerCount: 2
Fore
SplineSet
148 291 m 2
 148 77 271 -25 422 -20 c 0
 633 -13 706 131 706 494 c 2
 706 666 l 2
 706 1025 656 1172 449 1172 c 1
 335 1171 255 1102 212 1046 c 1
 212 1205 l 2
 212 1579 397 1565 642 1688 c 1
 612 1738 l 1
 423 1625 148 1633 148 1207 c 2
 148 291 l 2
212 291 m 2
 212 991 l 1
 257 1042 345 1122 449 1122 c 0
 618 1122 642 1003 642 667 c 2
 642 490 l 2
 642 154 594 35 422 30 c 0
 290 26 212 118 212 291 c 2
EndSplineSet
EndChar

StartChar: afii10067
Encoding: 428 1074 151
Width: 1069
VWidth: 0
GlyphClass: 2
Flags: W
HStem: 2 101 588 108 1098 102
VStem: 79 145 516 142 551 132
LayerCount: 2
Fore
SplineSet
271 767 m 1
 271 560 l 1
 494 560 l 2
 587 560 679 563 679 364 c 0
 679 202 584 191 495 191 c 2
 271 191 l 1
 271 0 l 1
 530 0 l 2
 911 0 1041 111 1041 354 c 0
 1041 513 989 632 809 661 c 1
 937 679 1012 742 1012 911 c 0
 1012 1124 903 1216 505 1216 c 2
 270 1216 l 1
 270 1038 l 1
 499 1038 l 2
 612 1038 649 983 649 903 c 0
 649 825 601 767 522 767 c 2
 271 767 l 1
EndSplineSet
Refer: 288 -1 N 1 0 0 1 -1 0 2
EndChar

StartChar: afii10068
Encoding: 429 1075 152
Width: 729
VWidth: 0
GlyphClass: 2
Flags: W
HStem: 1 20 1064 134
VStem: 60 150
LayerCount: 2
UndoRedoHistory
Layer: 1
Undoes
EndUndoes
Redoes
EndRedoes
EndUndoRedoHistory
Fore
SplineSet
704 1216 m 1
 270 1216 l 1
 270 980 l 1
 704 980 l 1
 704 1216 l 1
EndSplineSet
Refer: 288 -1 S 1 0 0 1 -1 0 2
EndChar

StartChar: afii10069
Encoding: 430 1076 153
Width: 1293
VWidth: 0
GlyphClass: 2
Flags: W
HStem: 0 248<127 267.5 312 1013 1013 1013>
LayerCount: 2
Fore
SplineSet
1313 -250 m 1
 1313 248 l 1
 12 248 l 1
 12 -250 l 1
 312 -250 l 1
 312 0 l 1
 1013 0 l 1
 1013 -250 l 1
 1313 -250 l 1
638 297 m 2
 638 408 l 1
 266 408 l 1
 266 343 l 2
 266 246.39 195.114 248.377 127 248 c 1
 127 0 l 1
 408 0 638 12.1924 638 297 c 2
1031 968 m 1
 1031 1216 l 1
 449 1216 l 1
 449 968 l 1
 1031 968 l 1
EndSplineSet
Refer: 288 -1 N 1 0 0 1 708 0 2
Refer: 288 -1 N 1 0 0 0.664474 189 408 2
EndChar

StartChar: afii10072
Encoding: 432 1078 154
Width: 1436
VWidth: 0
GlyphClass: 2
Flags: W
HStem: 2 20 1179 19
VStem: 532 152
LayerCount: 2
Fore
SplineSet
331 1216 m 1
 12 1216 l 1
 372 603 l 1
 0 0 l 1
 332 0 l 1
 607 489 l 1
 718 348 l 1
 829 489 l 1
 1104 0 l 1
 1436 0 l 1
 1064 603 l 1
 1424 1216 l 1
 1105 1216 l 1
 718 492 l 1
 331 1216 l 1
EndSplineSet
Refer: 288 -1 N 1 0 0 1 457 0 2
EndChar

StartChar: afii10073
Encoding: 433 1079 155
Width: 720
VWidth: 0
GlyphClass: 2
Flags: W
HStem: -20 50<358 358> 569 56<317 408.5> 1122 50<302 444.5>
VStem: 88 65<214.5 294 214.5 294> 573 64 578 64<305 305>
LayerCount: 2
Fore
SplineSet
435 598 m 1
 554 622 632 717 637 854 c 0
 643 1032 559 1172 368 1172 c 0
 192 1172 88 1067 88 879 c 1
 151 879 l 1
 151 1031 235 1122 369 1122 c 0
 520 1122 583 991 573 851 c 0
 564 722 509 625 317 625 c 1
 317 569 l 1
 500 569 573 454 578 305 c 0
 584 116 497 28 358 30 c 0
 210 32 153 135 153 294 c 1
 88 294 l 1
 88 98 186 -17 358 -20 c 0
 537 -23 647 100 642 305 c 0
 638 473 555 558 435 598 c 1
EndSplineSet
EndChar

StartChar: afii10074
Encoding: 434 1080 156
Width: 1043
VWidth: 0
GlyphClass: 2
Flags: W
LayerCount: 2
Fore
SplineSet
789 868 m 1
 636 1116 l 1
 267 258 l 1
 414 0 l 1
 789 868 l 1
EndSplineSet
Refer: 288 -1 N 0.908602 0 0 1 6.03763 0 2
Refer: 288 -1 N 0.908602 0 0 1 566.038 0 2
EndChar

StartChar: afii10076
Encoding: 436 1082 158
Width: 1134
VWidth: 0
GlyphClass: 2
Flags: W
HStem: 0 21<744 1134 1134 1134> 572 35
VStem: 152 64
LayerCount: 2
Fore
SplineSet
267 215 m 1
 483 530 l 1
 744 0 l 1
 1134 0 l 1
 768 670 l 1
 1117 1216 l 1
 699 1216 l 1
 267 423 l 1
 267 215 l 1
EndSplineSet
Refer: 288 -1 N 1 0 0 1 -1 0 2
EndChar

StartChar: afii10077
Encoding: 437 1083 159
Width: 1120
VWidth: 0
GlyphClass: 2
Flags: W
HStem: -14 422 0 246<14 53.5>
LayerCount: 2
Fore
SplineSet
525 297 m 2
 525 408 l 1
 153 408 l 1
 153 343 l 2
 153 246.39 93 246 14 246 c 1
 14 0 l 1
 91.1655 -9.03704 157.781 -14.0296 215.005 -14.0296 c 0
 447.568 -14.0296 525 68.4326 525 297 c 2
918 968 m 1
 918 1216 l 1
 336 1216 l 1
 336 968 l 1
 918 968 l 1
EndSplineSet
Refer: 288 -1 N 1 0 0 0.664474 76 408 2
Refer: 288 -1 N 1 0 0 1 595 0 2
EndChar

StartChar: afii10078
Encoding: 438 1084 160
Width: 1206
VWidth: 0
GlyphClass: 2
Flags: W
LayerCount: 2
Fore
SplineSet
658.408 146 m 1
 968.408 968 l 1
 815.408 1216 l 1
 603.408 658 l 1
 391.408 1216 l 1
 238.408 968 l 1
 548.408 146 l 1
 658.408 146 l 1
EndSplineSet
Refer: 288 -1 N 0.849462 0 0 1 748.408 0 2
Refer: 288 -1 N 0.849462 0 0 1 11.4082 0 2
EndChar

StartChar: afii10079
Encoding: 439 1085 161
Width: 1070
VWidth: 0
GlyphClass: 2
Flags: W
HStem: 2 20 616 106 1180 19
VStem: 111 153 593 153
LayerCount: 2
Fore
SplineSet
263 754 m 1
 263 502 l 1
 806 502 l 1
 806 754 l 1
 263 754 l 1
EndSplineSet
Refer: 288 -1 N 1 0 0 1 545 0 2
Refer: 288 -1 N 1 0 0 1 -1 0 2
EndChar

StartChar: afii10081
Encoding: 441 1087 162
Width: 1043
VWidth: 0
GlyphClass: 2
Flags: W
HStem: 2 20 1094 105
VStem: 111 153 593 153
LayerCount: 2
Fore
SplineSet
841 968 m 1
 841 1216 l 1
 259 1216 l 1
 259 968 l 1
 841 968 l 1
EndSplineSet
Refer: 288 -1 N 1 0 0 1 518 0 2
Refer: 288 -1 N 1 0 0 1 -1 0 2
EndChar

StartChar: afii10085
Encoding: -1 1091 163
Width: 860
VWidth: 0
GlyphClass: 2
Flags: W
LayerCount: 2
Fore
SplineSet
232 91 m 2
 267 -81 233 -137 3 -137 c 1
 38 -426 l 1
 484 -426 560 -312 620 0 c 2
 856 1217 l 1
 513 1217 l 1
 438 496 l 1
 346 1217 l 1
 4 1217 l 1
 232 91 l 2
EndSplineSet
EndChar

StartChar: afii10088
Encoding: 448 1094 165
Width: 1085
VWidth: 0
GlyphClass: 2
Flags: W
HStem: -27 111 -26 20 13 112 1184 19
VStem: 64 153 544 150 701 96
LayerCount: 2
Fore
SplineSet
1085 -250 m 1
 1085 248 l 1
 268 248 l 1
 268 0 l 1
 805 0 l 1
 805 -250 l 1
 1085 -250 l 1
EndSplineSet
Refer: 288 -1 N 1 0 0 1 -1 0 2
Refer: 288 -1 N 1 0 0 1 514 0 2
EndChar

StartChar: afii10089
Encoding: 449 1095 166
Width: 994
VWidth: 0
GlyphClass: 2
Flags: W
HStem: 1 20 459 111 1185 19
VStem: 112 152 590 150
LayerCount: 2
Fore
SplineSet
42 843 m 2
 42 714 99 517 455 517 c 0
 534 517 627 527 738 549 c 1
 738 731 l 1
 661 722 602 716 556 716 c 0
 445 716 414 749 414 840 c 2
 414 1216 l 1
 42 1216 l 1
 42 843 l 2
EndSplineSet
Refer: 288 -1 N 1 0 0 1 469 0 2
EndChar

StartChar: afii10090
Encoding: 450 1096 167
Width: 1500
VWidth: 0
GlyphClass: 2
Flags: W
HStem: -29 111 -2 20
VStem: 93 150 556 150 1046 150
LayerCount: 2
Fore
SplineSet
255 0 m 1
 1246 0 l 1
 1246 248 l 1
 255 248 l 1
 255 0 l 1
EndSplineSet
Refer: 288 -1 N 0.972805 0 0 1 988 0 2
Refer: 288 -1 N 0.972805 0 0 1 495 0 2
Refer: 288 -1 N 0.972805 0 0 1 1 0 2
EndChar

StartChar: afii10091
Encoding: 451 1097 168
Width: 1626
VWidth: 0
GlyphClass: 2
Flags: W
HStem: -29 111 -2 20
VStem: 93 150 556 150 1046 150
LayerCount: 2
Fore
SplineSet
1626 -250 m 1
 1626 248 l 1
 255 248 l 1
 255 0 l 1
 1346 0 l 1
 1346 -250 l 1
 1626 -250 l 1
EndSplineSet
Refer: 288 -1 N 0.972805 0 0 1 495 0 2
Refer: 288 -1 N 0.972805 0 0 1 1 0 2
Refer: 288 -1 N 0.972805 0 0 1 988 0 2
EndChar

StartChar: afii10092
Encoding: 452 1098 169
Width: 1191
VWidth: 0
GlyphClass: 2
Flags: W
HStem: 0 54 647 56 1101 51
VStem: 152 64 684 66
LayerCount: 2
Fore
SplineSet
430 982 m 1
 430 1216 l 1
 24 1216 l 1
 24 982 l 1
 430 982 l 1
EndSplineSet
Refer: 288 -1 N 1 0 0 1 165 0 2
Refer: 213 -1 N 1 0 0 1 169 0 2
EndChar

StartChar: afii10095
Encoding: 455 1101 172
Width: 971
VWidth: 0
GlyphClass: 2
Flags: W
HStem: -26 101 527 139 1124 101
VStem: 106 150 587 149
LayerCount: 2
Fore
SplineSet
726 681 m 1
 366 681 l 1
 366 575 l 1
 726 575 l 1
 726 681 l 1
EndSplineSet
Refer: 197 99 N -1 0 0 -1 965 1215 2
EndChar

StartChar: afii10096
Encoding: 456 1102 173
Width: 1470
VWidth: 0
GlyphClass: 2
Flags: W
HStem: -26 101 1 20 569 135 1124 101 1179 19
VStem: 62 150 326 150 810 150
LayerCount: 2
Fore
SplineSet
259 747 m 1
 259 462 l 1
 741 462 l 1
 741 461 l 1
 741 747 l 1
 259 747 l 1
EndSplineSet
Refer: 308 111 N 0.961665 0 0 1 515 0 2
Refer: 288 -1 N 1 0 0 1 -1 0 2
EndChar

StartChar: afii10097
Encoding: 457 1103 174
Width: 1023
VWidth: 0
GlyphClass: 2
Flags: W
HStem: -13 20 452 117 1075 119
VStem: 86 157 603 134
LayerCount: 2
Fore
SplineSet
225 705 m 1
 53 0 l 1
 406 0 l 1
 535 607 l 1
 225 705 l 1
EndSplineSet
Refer: 288 -1 N 1 0 0 1 498 0 2
Refer: 213 -1 N -1 1.11022e-16 -1.11022e-16 -1 1035 1216 2
EndChar

StartChar: afii10101
Encoding: 461 1108 175
Width: 951
VWidth: 0
GlyphClass: 2
Flags: W
HStem: -26 101 527 139 1124 101
VStem: 106 150 587 149
LayerCount: 2
Fore
SplineSet
615 681 m 1
 255 681 l 1
 255 575 l 1
 615 575 l 1
 615 681 l 1
EndSplineSet
Refer: 197 99 N 1 0 0 1 6 0 2
EndChar

StartChar: ampersand
Encoding: 6 38 178
Width: 1121
VWidth: 0
GlyphClass: 2
Flags: W
HStem: -29 238<419.74 463 419.74 491> 1433 253
VStem: 48 278 117 288<1293.5 1369.51 1293.5 1415.5> 574 271<1297.5 1370.24> 805 227<781 834>
LayerCount: 2
Fore
SplineSet
435 -29 m 0
 547 -29 656 15 728 104 c 1
 793.404 47.2526 881.01 -35.3975 976.582 -35.3975 c 0
 1001.75 -35.3975 1023.29 -29.9753 1046 -24 c 1
 1046 222 l 1
 996 228 944 253 920 283 c 1
 994 436 1032 564 1032 834 c 1
 805 834 l 1
 805 728 784 537 750 483 c 1
 574 838 l 1
 686 965 845 1083 845 1318 c 0
 845 1548 683 1686 469 1686 c 0
 250 1686 117 1515 117 1316 c 0
 117 1175 205 1058 280 900 c 1
 156 774 48 560 48 366 c 0
 48 134 212 -29 435 -29 c 0
443 209 m 0
 396.479 209 325.745 274.96 325.745 398.789 c 0
 325.745 466.61 346.964 551.79 405 653 c 1
 429 594 570 265 570 265 c 1
 530 210 483 209 443 209 c 0
475 1033 m 1
 468 1083 405 1250 405 1337 c 0
 405 1402.01 446.229 1432.68 487.959 1432.68 c 0
 530.717 1432.68 574 1400.48 574 1340 c 0
 574 1255 497 1094 475 1033 c 1
EndSplineSet
EndChar

StartChar: asciicircum
Encoding: 62 94 181
Width: 954
VWidth: 0
GlyphClass: 2
Flags: W
LayerCount: 2
Fore
SplineSet
68 821 m 1
 373 821 l 1
 466 1148 l 1
 561 821 l 1
 868 821 l 1
 606 1474 l 1
 328 1474 l 1
 68 821 l 1
EndSplineSet
EndChar

StartChar: asciitilde
Encoding: 94 126 182
Width: 1009
VWidth: 0
GlyphClass: 2
Flags: W
HStem: 660 253 775 257
LayerCount: 2
Fore
SplineSet
682.473 660 m 0
 824.571 660 896.562 813.662 896.562 1009.93 c 0
 896.562 1013.93 896.532 1017.96 896.473 1022 c 1
 708.473 1022 l 1
 690.829 940.578 665.225 913.086 632.569 913.086 c 0
 564.652 913.086 466.231 1032 345.473 1032 c 0
 197.199 1032 112.438 865.892 112.438 678.553 c 0
 112.438 676.371 112.449 674.188 112.473 672 c 1
 302.473 672 l 1
 322.273 748.98 350.188 775.056 384.934 775.056 c 0
 457.921 775.056 561.055 660 682.473 660 c 0
EndSplineSet
EndChar

StartChar: asterisk
Encoding: 10 42 183
Width: 882
VWidth: 0
GlyphClass: 2
Flags: W
LayerCount: 2
Fore
SplineSet
365 752 m 1
 458 956 l 1
 552 752 l 1
 773 882 l 1
 628 1081 l 1
 842 1163 l 1
 760 1385 l 1
 572 1277 l 1
 597 1501 l 1
 320 1501 l 1
 347 1279 l 1
 158 1384 l 1
 76 1165 l 1
 288 1083 l 1
 147 881 l 1
 365 752 l 1
EndSplineSet
EndChar

StartChar: at
Encoding: 32 64 184
Width: 1699
VWidth: 0
GlyphClass: 2
Flags: W
HStem: -64 193<684 983.5 684 1003.5> 1056 244<817.5 842.5 636 898.5> 1472 187<647.5 1074.5>
VStem: 51 229 950 272<715 1024 588 1291 1145 1291 1145 1145> 1448 227<747.5 1045>
LayerCount: 2
Fore
SplineSet
931 -64 m 0
 1076 -64 1230 -35 1365 -5 c 1
 1308 193 l 1
 1207 156 1029 129 938 129 c 0
 430 129 264 418 280 857 c 0
 292 1174 429 1472 866 1472 c 0
 1283 1472 1448 1240 1448 850 c 0
 1448 645 1342 502 1255 538 c 0
 1217 554 1222 681 1222 715 c 2
 1222 1291 l 1
 950 1291 l 1
 950 1145 l 1
 934 1185 897 1300 788 1300 c 0
 484 1300 428 960 441 765 c 0
 457 531 609 351 821 369 c 0
 891 375 960 414 985 475 c 1
 1036 383 1159 350 1259 350 c 0
 1583 350 1675 649 1675 846 c 0
 1675 1327 1411 1659 868 1659 c 0
 337 1659 63 1308 51 855 c 0
 36 300 332 -64 931 -64 c 0
868 584 m 1
 776 584 734 668 724 764 c 0
 711 885 744 1056 891 1056 c 0
 906 1056 950 1049 950 1024 c 2
 950 588 l 1
 935 575 861 584 868 584 c 1
EndSplineSet
EndChar

StartChar: backslash
Encoding: 60 92 187
Width: 578
VWidth: 0
GlyphClass: 2
Flags: W
LayerCount: 2
Fore
SplineSet
220 0 m 1
 536 0 l 1
 358 1637 l 1
 42 1637 l 1
 220 0 l 1
EndSplineSet
EndChar

StartChar: bar
Encoding: 92 124 188
Width: 553
VWidth: 0
GlyphClass: 2
Flags: W
VStem: 128 297<-187 1638 -187 1638>
LayerCount: 2
Fore
SplineSet
128 -187 m 1
 425 -187 l 1
 425 1638 l 1
 128 1638 l 1
 128 -187 l 1
EndSplineSet
EndChar

StartChar: braceleft
Encoding: 91 123 189
Width: 781
VWidth: 0
GlyphClass: 2
Flags: W
HStem: -156 243<507 721> 1459 243<507 721>
VStem: 214 334<324.5 415 1131 1221.5>
LayerCount: 2
Fore
SplineSet
76 908 m 1
 224 908 214 1068 214 1194 c 0
 214 1530 313 1702 701 1702 c 1
 721 1459 l 1
 537 1461 548 1291 548 1152 c 0
 548 910 529 811 386 773 c 1
 529 735 548 636 548 394 c 0
 548 255 537 85 721 87 c 1
 701 -156 l 1
 313 -156 214 16 214 352 c 0
 214 478 233 638 76 638 c 1
 76 908 l 1
EndSplineSet
EndChar

StartChar: braceright
Encoding: 93 125 190
Width: 781
VWidth: 0
GlyphClass: 2
Flags: W
HStem: -156 243<76 290> 1459 243<76 290>
VStem: 249 334<324.5 415 184 515 1131 1221.5>
LayerCount: 2
Fore
SplineSet
721 908 m 1
 573 908 583 1068 583 1194 c 0
 583 1530 484 1702 96 1702 c 1
 76 1459 l 1
 260 1461 249 1291 249 1152 c 0
 249 910 268 811 411 773 c 1
 268 735 249 636 249 394 c 0
 249 255 260 85 76 87 c 1
 96 -156 l 1
 484 -156 583 16 583 352 c 0
 583 478 564 638 721 638 c 1
 721 908 l 1
EndSplineSet
EndChar

StartChar: bracketleft
Encoding: 59 91 191
Width: 813
VWidth: 0
GlyphClass: 2
Flags: W
LayerCount: 2
Fore
SplineSet
143 -58 m 1
 721 -58 l 1
 721 115 l 1
 455 115 l 1
 455 1594 l 1
 721 1594 l 1
 721 1767 l 1
 143 1767 l 1
 143 -58 l 1
EndSplineSet
EndChar

StartChar: bracketright
Encoding: 61 93 192
Width: 743
VWidth: 0
GlyphClass: 2
Flags: W
LayerCount: 2
Fore
SplineSet
88 -58 m 1
 621 -58 l 1
 621 1701 l 1
 88 1701 l 1
 88 1567 l 1
 349 1567 l 1
 349 76 l 1
 88 76 l 1
 88 -58 l 1
EndSplineSet
EndChar

StartChar: breve
Encoding: 361 728 193
Width: 650
VWidth: 0
GlyphClass: 2
Flags: W
HStem: 1344 118
VStem: 46 180<1526.44 1559> 385 179<1526.82 1559>
LayerCount: 2
Fore
SplineSet
305 1344 m 0
 449.535 1344 564.1 1450.34 564.1 1553.71 c 0
 564.1 1555.48 564.067 1557.24 564 1559 c 1
 385 1559 l 1
 385 1494.63 344.788 1461.87 304.809 1461.87 c 0
 265.291 1461.87 226 1493.88 226 1559 c 1
 46 1559 l 1
 45.9329 1557.24 45.8996 1555.48 45.8996 1553.71 c 0
 45.8996 1450.34 160.465 1344 305 1344 c 0
EndSplineSet
EndChar

StartChar: uni0306
Encoding: 372 774 194
Width: 0
VWidth: 0
GlyphClass: 2
Flags: W
HStem: 1344 118
VStem: -279 180<1526.44 1559> 60 179<1526.82 1559>
LayerCount: 2
Fore
SplineSet
-20 1344 m 0
 124.535 1344 239.101 1450.34 239.101 1553.71 c 0
 239.101 1555.48 239.067 1557.24 239 1559 c 1
 60 1559 l 1
 60 1494.63 19.7891 1461.87 -20.1904 1461.87 c 0
 -59.709 1461.87 -99 1493.88 -99 1559 c 1
 -279 1559 l 1
 -279.066 1557.24 -279.1 1555.48 -279.1 1553.71 c 0
 -279.1 1450.34 -164.534 1344 -20 1344 c 0
EndSplineSet
EndChar

StartChar: brokenbar
Encoding: 102 166 195
Width: 412
VWidth: 0
GlyphClass: 2
Flags: W
VStem: 73 251<-194 630 -194 630 814 1638 -194 814>
LayerCount: 2
Fore
SplineSet
73 -194 m 1
 324 -194 l 1
 324 630 l 1
 73 630 l 1
 73 -194 l 1
73 814 m 1
 324 814 l 1
 324 1638 l 1
 73 1638 l 1
 73 814 l 1
EndSplineSet
EndChar

StartChar: bullet
Encoding: 505 8226 196
Width: 1059
VWidth: 0
GlyphClass: 2
Flags: W
LayerCount: 2
Fore
SplineSet
526 202 m 0
 724 202 940 342 940 626 c 0
 940 913 725 1057 526 1057 c 0
 329 1057 115 918 115 626 c 0
 115 341 328 202 526 202 c 0
EndSplineSet
EndChar

StartChar: c
Encoding: 67 99 197
Width: 968
VWidth: 0
GlyphClass: 2
Flags: W
LayerCount: 2
Fore
SplineSet
485 -27 m 0
 733 -27 911 89 911 326 c 2
 911 491 l 1
 547 491 l 1
 547 324 l 2
 547 247 517 236 485 236 c 0
 455 236 428 258 428 332 c 2
 428 885 l 2
 428 959 455 981 485 981 c 0
 517 981 547 970 547 893 c 2
 547 746 l 1
 911 746 l 1
 911 891 l 2
 911 1128 733 1244 485 1244 c 0
 237 1244 54 1109 54 873 c 2
 54 344 l 2
 54 108 237 -27 485 -27 c 0
EndSplineSet
EndChar

StartChar: caron
Encoding: 360 711 199
Width: 868
VWidth: 0
GlyphClass: 2
Flags: W
HStem: 1271 389<252 334 530 606 606 606>
LayerCount: 2
Fore
SplineSet
252 1271 m 1
 606 1271 l 1
 790 1660 l 1
 530 1660 l 1
 430 1443 l 1
 334 1660 l 1
 75 1660 l 1
 252 1271 l 1
EndSplineSet
EndChar

StartChar: uni030C
Encoding: 376 780 200
Width: 0
VWidth: 0
GlyphClass: 2
Flags: W
HStem: 1271 389<-182 -100 96 172 172 172>
LayerCount: 2
Fore
SplineSet
-182 1271 m 1
 172 1271 l 1
 356 1660 l 1
 96 1660 l 1
 -4 1443 l 1
 -100 1660 l 1
 -359 1660 l 1
 -182 1271 l 1
EndSplineSet
EndChar

StartChar: cedilla
Encoding: 120 184 205
Width: 580
VWidth: 0
GlyphClass: 2
Flags: W
HStem: -571 155<127 127>
VStem: 376 232<-414.5 -335>
LayerCount: 2
Fore
SplineSet
127 -571 m 1
 329 -632 608 -589 608 -359 c 0
 608 -230 478 -142 309 -142 c 1
 309 0 l 1
 183 0 l 1
 183 -260 l 1
 258 -260 376 -292 376 -378 c 0
 376 -451 190 -434 127 -416 c 1
 127 -571 l 1
EndSplineSet
EndChar

StartChar: cent
Encoding: 98 162 206
Width: 949
VWidth: 0
GlyphClass: 2
Flags: W
LayerCount: 2
Fore
SplineSet
524 -317 m 1
 524 5 l 1
 433 5 l 1
 433 -317 l 1
 524 -317 l 1
524 1160 m 1
 524 1479 l 1
 433 1479 l 1
 433 1160 l 1
 524 1160 l 1
EndSplineSet
Refer: 197 99 N 1 0 0 1 0 0 2
EndChar

StartChar: circumflex
Encoding: 359 710 207
Width: 876
VWidth: 0
GlyphClass: 2
Flags: W
HStem: 1247 405<301 372 372 372 527 591 301 798 301 798>
LayerCount: 2
Fore
SplineSet
102 1247 m 1
 372 1247 l 1
 449 1491 l 1
 527 1247 l 1
 798 1247 l 1
 591 1652 l 1
 301 1652 l 1
 102 1247 l 1
EndSplineSet
EndChar

StartChar: uni0302
Encoding: 369 770 208
Width: 0
VWidth: 0
GlyphClass: 2
Flags: W
HStem: 1247 405<-137 -66 -66 -66 89 153 -137 360 -137 360>
LayerCount: 2
Fore
SplineSet
-336 1247 m 1
 -66 1247 l 1
 11 1491 l 1
 89 1247 l 1
 360 1247 l 1
 153 1652 l 1
 -137 1652 l 1
 -336 1247 l 1
EndSplineSet
EndChar

StartChar: colon
Encoding: 26 58 209
Width: 502
VWidth: 0
GlyphClass: 2
Flags: W
LayerCount: 2
Fore
SplineSet
79 86 m 1
 421 86 l 1
 421 424 l 1
 79 424 l 1
 79 86 l 1
79 841 m 1
 421 841 l 1
 421 1179 l 1
 79 1179 l 1
 79 841 l 1
EndSplineSet
EndChar

StartChar: comma
Encoding: 12 44 210
Width: 457
VWidth: 0
GlyphClass: 2
Flags: W
HStem: -291 111<86 101>
VStem: 241 151
LayerCount: 2
Fore
SplineSet
101 -291 m 1
 294.384 -289.421 391 -167 391.665 55 c 2
 392 341 l 1
 47 341 l 1
 47 0 l 1
 241 0 l 1
 241 -130 158 -164 86 -180 c 1
 101 -291 l 1
EndSplineSet
EndChar

StartChar: copyright
Encoding: 105 169 211
Width: 1706
VWidth: 0
GlyphClass: 2
Flags: W
LayerCount: 2
Fore
SplineSet
854 26 m 0
 342 26 119 416 119 814 c 0
 119 1213 342 1598 854 1598 c 0
 1364 1598 1588 1213 1588 814 c 0
 1588 416 1364 26 854 26 c 0
854 -22 m 0
 1419 -22 1646 410 1646 812 c 0
 1646 1214 1417 1646 854 1646 c 0
 289 1646 60 1214 60 812 c 0
 60 411 289 -22 854 -22 c 0
EndSplineSet
Refer: 197 99 N 1.0747 0 0 1.0747 326 159 2
EndChar

StartChar: currency
Encoding: 100 164 212
Width: 958
VWidth: 0
GlyphClass: 2
Flags: W
LayerCount: 2
Fore
SplineSet
184 574 m 1
 266 636 l 1
 319 599 387 577 479 577 c 0
 568 577 635 598 687 633 c 1
 765 574 l 1
 860 675 l 1
 781 733 l 1
 805 790 814 849 814 911 c 0
 814 972 804 1031 779 1086 c 1
 860 1148 l 1
 765 1250 l 1
 685 1188 l 1
 633 1222 567 1243 479 1243 c 0
 388 1243 319 1220 267 1184 c 1
 184 1250 l 1
 89 1148 l 1
 172 1084 l 1
 150 1027 143 969 143 911 c 0
 143 852 149 794 169 738 c 1
 89 675 l 1
 184 574 l 1
479 760 m 1
 400 758 351 832 351 911 c 0
 351 987 385 1061 479 1058 c 1
 573 1061 607 985 607 910 c 0
 607 834 572 758 479 760 c 1
EndSplineSet
EndChar

StartChar: cyrillic_lc_right_bowl
Encoding: 520 -1 213
Width: 0
VWidth: 0
GlyphClass: 2
Flags: W
LayerCount: 2
Fore
SplineSet
265 713 m 1
 265 493 l 1
 449 493 l 2
 578 493 663 467 663 343 c 0
 663 245 588 211 449 211 c 2
 265 211 l 1
 265 0 l 1
 490 0 l 2
 850 0 1001 102 1001 346 c 0
 1001 627 809 713 481 713 c 2
 265 713 l 1
EndSplineSet
EndChar

StartChar: cyrillic_uc_right_bowl
Encoding: 521 -1 214
Width: 0
VWidth: 0
GlyphClass: 2
Flags: W
LayerCount: 2
Fore
SplineSet
437 954 m 1
 437 671 l 1
 671 671 l 2
 790 671 812 574 816 487 c 0
 822 354 790 267 675 267 c 2
 437 267 l 1
 437 0 l 1
 672 0 l 2
 941 0 1196 54 1196 478 c 0
 1196 792 1019 954 721 954 c 2
 437 954 l 1
EndSplineSet
EndChar

StartChar: dagger
Encoding: 503 8224 216
Width: 800
VWidth: 0
GlyphClass: 2
Flags: W
LayerCount: 2
Fore
SplineSet
255 0 m 1
 540 0 l 1
 540 814 l 1
 699 814 l 1
 699 1112 l 1
 540 1112 l 1
 540 1413 l 1
 255 1413 l 1
 255 1112 l 1
 95 1112 l 1
 95 814 l 1
 255 814 l 1
 255 0 l 1
EndSplineSet
EndChar

StartChar: daggerdbl
Encoding: 504 8225 217
Width: 800
VWidth: 0
GlyphClass: 2
Flags: W
LayerCount: 2
Fore
SplineSet
255 0 m 1
 540 0 l 1
 540 403 l 1
 699 403 l 1
 699 596 l 1
 540 596 l 1
 540 899 l 1
 699 899 l 1
 699 1107 l 1
 540 1107 l 1
 540 1413 l 1
 255 1413 l 1
 255 1107 l 1
 89 1107 l 1
 89 899 l 1
 255 899 l 1
 255 596 l 1
 89 596 l 1
 89 403 l 1
 255 403 l 1
 255 0 l 1
EndSplineSet
EndChar

StartChar: dcroat
Encoding: 209 273 219
Width: 978
VWidth: 0
GlyphClass: 2
Flags: W
LayerCount: 2
Fore
SplineSet
293 1534 m 1
 293 1395 l 1
 1045 1395 l 1
 1045 1534 l 1
 293 1534 l 1
EndSplineSet
Refer: 215 100 N 1 0 0 1 0 0 2
EndChar

StartChar: degree
Encoding: 112 176 220
Width: 1166
VWidth: 0
GlyphClass: 2
Flags: W
LayerCount: 2
Fore
SplineSet
574 1089 m 0
 465 1089 397 1180 397 1295 c 0
 397 1412 465 1498 574 1498 c 0
 686 1498 752 1410 752 1294 c 0
 752 1179 685 1089 574 1089 c 0
574 858 m 0
 836 858 1011 1019 1011 1295 c 0
 1011 1572 833 1730 574 1730 c 0
 316 1730 140 1572 140 1295 c 0
 140 1020 315 858 574 858 c 0
EndSplineSet
EndChar

StartChar: dieresis
Encoding: 104 168 221
Width: 886
VWidth: 0
GlyphClass: 2
Flags: W
HStem: 1385 328<65 346 65 346 540 821>
LayerCount: 2
Fore
SplineSet
540 1385 m 1
 821 1385 l 1
 821 1713 l 1
 540 1713 l 1
 540 1385 l 1
65 1385 m 1
 346 1385 l 1
 346 1713 l 1
 65 1713 l 1
 65 1385 l 1
EndSplineSet
EndChar

StartChar: divide
Encoding: 183 247 222
Width: 739
VWidth: 0
GlyphClass: 2
Flags: W
LayerCount: 2
Fore
SplineSet
248.5 229 m 1
 527.5 229 l 1
 527.5 491 l 1
 248.5 491 l 1
 248.5 229 l 1
13.5 587 m 1
 725.5 587 l 1
 725.5 771 l 1
 13.5 771 l 1
 13.5 587 l 1
248.5 866 m 1
 527.5 866 l 1
 527.5 1128 l 1
 248.5 1128 l 1
 248.5 866 l 1
EndSplineSet
EndChar

StartChar: dollar
Encoding: 4 36 223
Width: 989
VWidth: 0
GlyphClass: 2
Flags: W
LayerCount: 2
Fore
SplineSet
457 1895 m 1
 457 1627 l 1
 574 1627 l 1
 574 1895 l 1
 457 1895 l 1
464 0 m 1
 464 -248 l 1
 579 -248 l 1
 579 0 l 1
 464 0 l 1
EndSplineSet
Refer: 86 83 N 1 0 0 1 0 0 2
EndChar

StartChar: dotaccent
Encoding: 362 729 224
Width: 587
VWidth: 0
GlyphClass: 2
Flags: W
LayerCount: 2
Fore
SplineSet
145 1396 m 1
 490 1396 l 1
 490 1737 l 1
 145 1737 l 1
 145 1396 l 1
EndSplineSet
EndChar

StartChar: dotlessi
Encoding: 239 305 225
Width: 538
VWidth: 0
GlyphClass: 2
Flags: W
VStem: 80 378<0 1217 0 1217>
LayerCount: 2
Fore
SplineSet
80 0 m 1
 458 0 l 1
 458 1217 l 1
 80 1217 l 1
 80 0 l 1
EndSplineSet
EndChar

StartChar: e
Encoding: 69 101 226
Width: 973
VWidth: 0
GlyphClass: 2
Flags: W
LayerCount: 2
Fore
SplineSet
491 -27 m 0
 739 -27 917 89 917 326 c 2
 917 469 l 1
 565 469 l 1
 565 324 l 2
 565 247 523 236 491 236 c 0
 461 236 428 258 428 332 c 2
 428 885 l 2
 428 959 461 981 491 981 c 0
 523 981 565 970 565 893 c 2
 565 561 l 1
 917 561 l 1
 917 891 l 2
 917 1128 739 1244 491 1244 c 0
 243 1244 60 1109 60 873 c 2
 60 344 l 2
 60 108 243 -27 491 -27 c 0
262 761 m 1
 262 561 l 1
 738 561 l 1
 738 761 l 1
 262 761 l 1
EndSplineSet
EndChar

StartChar: eight
Encoding: 24 56 233
Width: 1068
VWidth: 0
GlyphClass: 2
Flags: W
LayerCount: 2
Fore
SplineSet
534.251 -30 m 0
 887.251 -30 1013 180 1004.25 490 c 0
 1000 637 947 794 815 854 c 1
 893 908 966 1021 971 1205 c 0
 979 1488 825.251 1652 534.251 1652 c 0
 245.251 1652 85 1491 93 1205 c 0
 98 1021 174 910 251 854 c 1
 118 794 68 636 65.2515 490 c 0
 60 182 185.251 -30 534.251 -30 c 0
534 248 m 0
 442 248 444 387 444 456 c 0
 444 573 440 691 534 691 c 0
 629 691 625 573 624 456 c 0
 624 389 627 248 534 248 c 0
534 983 m 0
 482 983 451 1040 451 1216 c 0
 451 1319 482 1368 534 1368 c 0
 582 1368 613 1319 613 1215 c 0
 613 1040 580 983 534 983 c 0
EndSplineSet
EndChar

StartChar: emdash
Encoding: 495 8212 235
Width: 2048
VWidth: 0
GlyphClass: 2
Flags: HW
LayerCount: 2
UndoRedoHistory
Layer: 1
Undoes
EndUndoes
Redoes
EndRedoes
EndUndoRedoHistory
Fore
SplineSet
2 713 m 1
 2 962 l 1
 2046 962 l 1
 2046 713 l 1
 2 713 l 1
EndSplineSet
EndChar

StartChar: endash
Encoding: 494 8211 236
Width: 1024
VWidth: 0
GlyphClass: 2
Flags: W
HStem: 410 243<0 1024 0 1024>
LayerCount: 2
Fore
SplineSet
0 410 m 1
 1024 410 l 1
 1024 653 l 1
 0 653 l 1
 0 410 l 1
EndSplineSet
EndChar

StartChar: eng
Encoding: 264 331 237
Width: 1039
VWidth: 0
GlyphClass: 2
Flags: W
HStem: -406 237<373 574 373 734>
LayerCount: 2
Fore
SplineSet
373 -406 m 1
 574 -406 l 2
 894 -406 967 -304 967 -12 c 2
 967 0 l 1
 595 0 l 1
 595 -10 l 2
 595 -129 548 -172 373 -169 c 1
 373 -406 l 1
EndSplineSet
Refer: 301 110 N 1 0 0 1 0 0 2
EndChar

StartChar: equal
Encoding: 29 61 239
Width: 690
VWidth: 0
GlyphClass: 2
Flags: W
VStem: 48 594<471 685 471 685 857 1071 471 857>
LayerCount: 2
Fore
SplineSet
48 471 m 1
 642 471 l 1
 642 685 l 1
 48 685 l 1
 48 471 l 1
48 857 m 1
 642 857 l 1
 642 1071 l 1
 48 1071 l 1
 48 857 l 1
EndSplineSet
EndChar

StartChar: eth
Encoding: 176 240 240
Width: 1024
VWidth: 0
GlyphClass: 2
Flags: W
LayerCount: 2
Fore
SplineSet
560 1190 m 1
 932 1190 l 1
 932 1378 883 1489 833 1558 c 1
 978 1654 l 1
 920 1737 l 1
 775 1641 l 1
 689 1719 603 1771 365 1766 c 1
 298 1507 l 1
 441 1502 463 1478 474 1461 c 1
 343 1374 l 1
 400 1297 l 1
 522 1376 l 1
 543 1352 560 1285 560 1190 c 1
EndSplineSet
Refer: 288 -1 N 1 0 0 1 483 0 2
Refer: 285 -1 N 1 0 0 1 -301 0 2
EndChar

StartChar: exclam
Encoding: 1 33 241
Width: 507
VWidth: 0
GlyphClass: 2
Flags: W
LayerCount: 2
Fore
SplineSet
68 0 m 1
 414 0 l 1
 414 340 l 1
 68 340 l 1
 68 0 l 1
180 446 m 1
 309 446 l 1
 445 1652 l 1
 76 1652 l 1
 180 446 l 1
EndSplineSet
EndChar

StartChar: exclamdown
Encoding: 97 161 242
Width: 507
VWidth: 0
GlyphClass: 2
Flags: W
LayerCount: 2
Fore
SplineSet
71 -507 m 1
 439 -507 l 1
 336 699 l 1
 207 699 l 1
 71 -507 l 1
102 805 m 1
 447 805 l 1
 447 1146 l 1
 102 1146 l 1
 102 805 l 1
EndSplineSet
EndChar

StartChar: f
Encoding: 70 102 243
Width: 643
VWidth: 0
GlyphClass: 2
Flags: W
HStem: 1348 277<312 576>
VStem: 16 615<958 1216 958 1216>
LayerCount: 2
Fore
SplineSet
631 1339 m 1
 631 1615 l 1
 569 1622 515 1625 467 1625 c 0
 157 1625 119 1486 119 1282 c 2
 119 1216 l 1
 16 1216 l 1
 16 958 l 1
 119 958 l 1
 119 0 l 1
 491 0 l 1
 491 958 l 1
 631 958 l 1
 631 1216 l 1
 491 1216 l 1
 491 1278 l 2
 491 1334 526 1348 564 1348 c 0
 588 1348 613 1342 631 1339 c 1
EndSplineSet
EndChar

StartChar: five
Encoding: 21 53 244
Width: 1069
VWidth: 0
GlyphClass: 2
Flags: W
LayerCount: 2
Fore
SplineSet
539 -35 m 0
 949 -35 1007 217 1007 577 c 0
 1007 959 853 1155 605 1120 c 0
 521 1108 436 1077 416 1047 c 1
 437 1319 l 1
 931 1319 l 1
 931 1626 l 1
 136 1626 l 1
 96 681 l 1
 430 681 l 1
 443 795 479 837 542 837 c 0
 633 837 651 716 651 574 c 0
 651 361 650 251 568 245 c 0
 485 239 463 286 463 493 c 1
 95 493 l 1
 95 182 154 -35 539 -35 c 0
EndSplineSet
EndChar

StartChar: foundryicon
Encoding: 522 -1 245
Width: 1559
VWidth: 0
GlyphClass: 2
Flags: W
LayerCount: 2
Fore
SplineSet
361 249 m 1
 774 544 l 1
 1196 249 l 1
 1043 737 l 1
 1458 1051 l 1
 943 1051 l 1
 774 1539 l 1
 614 1051 l 1
 99 1041 l 1
 512 737 l 1
 361 249 l 1
EndSplineSet
EndChar

StartChar: four
Encoding: 20 52 246
Width: 1069
VWidth: 0
GlyphClass: 2
Flags: W
LayerCount: 2
Fore
SplineSet
563 0 m 1
 897 0 l 1
 897 364 l 1
 1046 364 l 1
 1046 643 l 1
 897 643 l 1
 897 1626 l 1
 481 1626 l 1
 46 628 l 1
 46 364 l 1
 563 364 l 1
 563 0 l 1
360 643 m 1
 563 1157 l 1
 563 643 l 1
 360 643 l 1
EndSplineSet
EndChar

StartChar: fraction
Encoding: 508 8260 247
Width: 619
VWidth: 0
GlyphClass: 2
Flags: W
LayerCount: 2
Fore
SplineSet
10 0 m 1
 246 0 l 1
 609 1638 l 1
 374 1638 l 1
 10 0 l 1
EndSplineSet
EndChar

StartChar: g
Encoding: 71 103 248
Width: 1058
VWidth: 0
GlyphClass: 2
Flags: W
LayerCount: 2
Fore
SplineSet
561 -312 m 0
 917.471 -312 1015 -167 1015 1 c 0
 1015 158 946 245 689 283 c 0
 451 318 299 332 290 367 c 0
 277 415 369 492 429 553 c 1
 289 470 l 1
 349 435 447 408 548 408 c 0
 824 408 960 563 960 810 c 0
 960 997 883 1059 858 1083 c 1
 846 1019 l 1
 903 1058 1047 1131 1089 1146 c 1
 1004 1313 l 1
 957 1289 l 1
 886 1250 815 1177 759 1110 c 1
 825 1110 l 1
 781 1200 651 1246 516 1246 c 0
 247 1246 73 1114 73 805 c 0
 73 625 164 541 269 492 c 1
 269 588 l 1
 161 500 19 416 49 286 c 0
 63 224 119 182 289 126 c 1
 289 216 l 1
 241 163 42 57 42 -70 c 0
 42 -295 387 -312 561 -312 c 0
561 -95 m 0
 446 -95 395 -66 395 -10 c 0
 395 65 487 169 484 168 c 2
 370 107 l 1
 606 72 l 2
 696 59 732 38 720 -34 c 0
 713 -79 664 -95 561 -95 c 0
525 621 m 0
 457 621 451 691 451 827 c 0
 451 956 447 1032 523 1032 c 0
 599 1032 602 977 602 827 c 0
 602 681 593 621 525 621 c 0
EndSplineSet
EndChar

StartChar: germandbls
Encoding: 159 223 252
Width: 1126
VWidth: 0
GlyphClass: 2
Flags: W
HStem: 1437 249<515.969 588>
VStem: 685 306<1158 1300>
LayerCount: 2
Fore
SplineSet
532 -35 m 1
 870 -35 1092 92 1092 459 c 0
 1092 652 959 818 735 883 c 1
 924 954 991 1084 991 1232 c 0
 991 1515 854 1686 526 1686 c 0
 184 1686 76 1438 76 1216 c 1
 448 1216 l 1
 444 1358 475.938 1437 556 1437 c 0
 620 1437 685 1376 685 1224 c 0
 685 1051.93 630 986 551 986 c 2
 536 986 l 1
 536 704 l 1
 555 704 l 2
 632 704 712.65 623.602 722 514 c 0
 740 303 648 243 532 243 c 1
 532 -35 l 1
EndSplineSet
Refer: 288 -1 N 1 0 0 1 -1 0 2
EndChar

StartChar: grave
Encoding: 64 96 253
Width: 650
VWidth: 0
GlyphClass: 2
Flags: W
LayerCount: 2
Fore
SplineSet
339 1281 m 1
 582 1281 l 1
 455 1696 l 1
 71 1696 l 1
 339 1281 l 1
EndSplineSet
EndChar

StartChar: greater
Encoding: 30 62 255
Width: 833
VWidth: 0
GlyphClass: 2
Flags: W
LayerCount: 2
Fore
SplineSet
109 252 m 1
 760 705 l 1
 760 975 l 1
 109 1430 l 1
 109 1116 l 1
 495 842 l 1
 109 564 l 1
 109 252 l 1
EndSplineSet
EndChar

StartChar: guillemotleft
Encoding: 107 171 256
Width: 1019
VWidth: 0
GlyphClass: 2
Flags: W
LayerCount: 2
Fore
SplineSet
499 34 m 1
 499 369 l 1
 276 577 l 1
 499 783 l 1
 499 1118 l 1
 71 634 l 1
 71 518 l 1
 499 34 l 1
956 34 m 1
 956 369 l 1
 733 577 l 1
 956 783 l 1
 956 1118 l 1
 528 634 l 1
 528 518 l 1
 956 34 l 1
EndSplineSet
EndChar

StartChar: guillemotright
Encoding: 123 187 257
Width: 1020
VWidth: 0
GlyphClass: 2
Flags: W
LayerCount: 2
Fore
SplineSet
58 34 m 1
 485 518 l 1
 485 634 l 1
 58 1118 l 1
 58 783 l 1
 281 577 l 1
 58 369 l 1
 58 34 l 1
516 34 m 1
 942 518 l 1
 942 634 l 1
 516 1118 l 1
 516 783 l 1
 738 577 l 1
 516 369 l 1
 516 34 l 1
EndSplineSet
EndChar

StartChar: guilsinglleft
Encoding: 506 8249 258
Width: 578
VWidth: 0
GlyphClass: 2
Flags: W
LayerCount: 2
Fore
SplineSet
499 34 m 1
 499 369 l 1
 276 577 l 1
 499 783 l 1
 499 1118 l 1
 71 634 l 1
 71 518 l 1
 499 34 l 1
EndSplineSet
EndChar

StartChar: guilsinglright
Encoding: 507 8250 259
Width: 555
VWidth: 0
GlyphClass: 2
Flags: W
LayerCount: 2
Fore
SplineSet
71 34 m 1
 499 518 l 1
 499 634 l 1
 71 1118 l 1
 71 783 l 1
 294 577 l 1
 71 369 l 1
 71 34 l 1
EndSplineSet
EndChar

StartChar: hbar
Encoding: 229 295 261
Width: 1064
VWidth: 0
GlyphClass: 2
Flags: W
LayerCount: 2
Fore
SplineSet
768 1361 m 1
 768 1524 l 1
 12 1524 l 1
 12 1361 l 1
 768 1361 l 1
EndSplineSet
Refer: 287 -1 N 1 0 0 1 36 0 2
Refer: 282 -1 N 1 0 0 1 26 0 2
EndChar

StartChar: hungarumlaut
Encoding: 366 733 263
Width: 1016
VWidth: 0
GlyphClass: 2
Flags: W
HStem: 1264 448<57 495 192 248 455 495 192 591 591 650 650 650>
LayerCount: 2
Fore
SplineSet
57 1264 m 1
 192 1712 l 1
 495 1712 l 1
 248 1264 l 1
 57 1264 l 1
455 1264 m 1
 650 1264 l 1
 897 1712 l 1
 591 1712 l 1
 455 1264 l 1
EndSplineSet
EndChar

StartChar: hyphen
Encoding: 13 45 264
Width: 460
VWidth: 0
GlyphClass: 2
Flags: W
HStem: 713 249<2 458 2 458>
VStem: 2 456<713 962 713 962>
LayerCount: 2
Fore
SplineSet
2 713 m 1
 458 713 l 1
 458 962 l 1
 2 962 l 1
 2 713 l 1
EndSplineSet
EndChar

StartChar: i
Encoding: 73 105 265
Width: 534
VWidth: 0
GlyphClass: 2
Flags: W
LayerCount: 2
Fore
SplineSet
80 1391 m 1
 454 1391 l 1
 454 1626 l 1
 80 1626 l 1
 80 1391 l 1
EndSplineSet
Refer: 288 -1 N 1 0 0 1 5 0 2
EndChar

StartChar: j
Encoding: 74 106 275
Width: 549
VWidth: 0
GlyphClass: 2
Flags: W
LayerCount: 2
Fore
SplineSet
162 -393 m 0
 371 -393 473 -253 473 -65 c 2
 473 162 l 1
 101 162 l 1
 101 -19 l 2
 101 -86 64 -104 21 -104 c 0
 2 -104 -18 -99 -38 -95 c 1
 -38 -362 l 1
 25 -379 90 -393 162 -393 c 0
99 1391 m 1
 473 1391 l 1
 473 1626 l 1
 99 1626 l 1
 99 1391 l 1
EndSplineSet
Refer: 288 -1 N 1 0 0 1 24 0 2
EndChar

StartChar: k
Encoding: 75 107 277
Width: 1217
VWidth: 0
GlyphClass: 2
Flags: W
LayerCount: 2
Fore
SplineSet
267 249 m 1
 520 588 l 1
 822 0 l 1
 1191 0 l 1
 800 702 l 1
 1162 1216 l 1
 771 1216 l 1
 267 525 l 1
 267 249 l 1
EndSplineSet
Refer: 282 -1 N 1 0 0 1 -1 0 2
EndChar

StartChar: kgreenlandic
Encoding: 246 312 279
Width: 1017
VWidth: 0
GlyphClass: 2
Flags: W
LayerCount: 2
Fore
SplineSet
279 605 m 1
 405.002 514 l 1
 630 0 l 1
 1025 0 l 1
 724 640 l 1
 1008 1217 l 1
 617 1217 l 1
 406.567 728 l 1
 279 635 l 1
 279 605 l 1
EndSplineSet
Refer: 288 -1 N 1 0 0 1 -1 0 2
EndChar

StartChar: lc_ascender_stem
Encoding: 523 -1 282
Width: 450
VWidth: 0
GlyphClass: 2
Flags: W
LayerCount: 2
Fore
SplineSet
447 1626 m 1
 75 1626 l 1
 75 0 l 1
 447 0 l 1
 447 1626 l 1
EndSplineSet
EndChar

StartChar: lc_descender_stem
Encoding: 524 -1 283
Width: 450
VWidth: 0
GlyphClass: 2
Flags: W
LayerCount: 2
Fore
SplineSet
449 1216 m 1
 77 1216 l 1
 77 -356 l 1
 449 -356 l 1
 449 1216 l 1
EndSplineSet
EndChar

StartChar: lc_horiz_bar
Encoding: 525 -1 284
Width: 500
VWidth: 0
Flags: W
LayerCount: 2
Fore
SplineSet
82 0 m 1
 845 0 l 1
 845 316 l 1
 82 316 l 1
 82 0 l 1
EndSplineSet
EndChar

StartChar: lc_left_curve
Encoding: 526 -1 285
Width: 1022
VWidth: 0
GlyphClass: 2
Flags: W
LayerCount: 2
Fore
SplineSet
616 -18 m 0
 771 -18 930 73 1054 275 c 1
 1054 422 l 1
 990 361 862 245 800 245 c 0
 758 245 737 281 737 322 c 2
 737 900 l 2
 737 954 756 990 804 990 c 0
 883 990 990 875 1054 814 c 1
 1054 927 l 1
 950 1101 780 1244 618 1244 c 0
 456 1244 363 1120 363 919 c 2
 363 307 l 2
 363 101 449 -18 616 -18 c 0
EndSplineSet
EndChar

StartChar: lc_right_curve
Encoding: 527 -1 286
Width: 1022
VWidth: 0
GlyphClass: 2
Flags: W
LayerCount: 2
Fore
SplineSet
710 -18 m 0
 855 -18 956 97 956 307 c 2
 956 928 l 2
 956 1138 864 1237 710 1244 c 0
 576 1250 401 1152 265 934 c 1
 265 786 l 1
 329 851 452 971 510 980 c 0
 555 987 582 950 582 909 c 2
 582 308 l 2
 582 267 555 235 510 236 c 0
 439 238 329 332 265 393 c 1
 265 282 l 1
 389 80 556 -18 710 -18 c 0
EndSplineSet
EndChar

StartChar: lc_xheight_curve_stem
Encoding: 528 -1 287
Width: 962
VWidth: 0
GlyphClass: 2
Flags: W
LayerCount: 2
Fore
SplineSet
264 758 m 1
 366 936 473 983 527 986 c 0
 570 988 584 962 584 914 c 2
 584 0 l 1
 956 0 l 1
 956 955 l 2
 956 1129 867 1244 722 1244 c 0
 558 1244 418 1169 264 867 c 1
 264 758 l 1
EndSplineSet
EndChar

StartChar: lc_xheight_stem
Encoding: 529 -1 288
Width: 962
VWidth: 0
GlyphClass: 2
Flags: W
LayerCount: 2
Fore
SplineSet
77 0 m 1
 449 0 l 1
 449 1216 l 1
 77 1216 l 1
 77 0 l 1
EndSplineSet
EndChar

StartChar: less
Encoding: 28 60 292
Width: 833
VWidth: 0
GlyphClass: 2
Flags: W
LayerCount: 2
Fore
SplineSet
716 252 m 1
 716 564 l 1
 330 842 l 1
 716 1116 l 1
 716 1430 l 1
 66 975 l 1
 66 705 l 1
 716 252 l 1
EndSplineSet
EndChar

StartChar: logicalnot
Encoding: 108 172 293
Width: 814
VWidth: 0
GlyphClass: 2
Flags: W
LayerCount: 2
Fore
SplineSet
489 234 m 1
 671 234 l 1
 671 653 l 1
 137 653 l 1
 137 410 l 1
 489 410 l 1
 489 234 l 1
EndSplineSet
EndChar

StartChar: lslash
Encoding: 256 322 294
Width: 605
VWidth: 0
GlyphClass: 2
Flags: W
LayerCount: 2
Fore
SplineSet
139 0 m 1
 516 0 l 1
 516 989 l 1
 703 1053 l 1
 703 1245 l 1
 516 1181 l 1
 516 1652 l 1
 139 1652 l 1
 139 1043 l 1
 -40 982 l 1
 -40 790 l 1
 139 851 l 1
 139 0 l 1
EndSplineSet
EndChar

StartChar: macron
Encoding: 111 175 296
Width: 278
VWidth: 0
GlyphClass: 2
Flags: W
LayerCount: 2
Fore
SplineSet
-98 1341 m 1
 384 1341 l 1
 384 1545 l 1
 -98 1545 l 1
 -98 1341 l 1
EndSplineSet
EndChar

StartChar: uni0304
Encoding: 371 772 297
Width: 0
VWidth: 0
GlyphClass: 2
Flags: W
HStem: 1341 204<-237 245 -237 245>
VStem: -237 482<1341 1545 1341 1545>
LayerCount: 2
Fore
SplineSet
-237 1341 m 1
 245 1341 l 1
 245 1545 l 1
 -237 1545 l 1
 -237 1341 l 1
EndSplineSet
EndChar

StartChar: minus
Encoding: 514 8722 298
Width: 882
VWidth: 0
GlyphClass: 2
Flags: W
LayerCount: 2
Fore
SplineSet
136 506 m 1
 726 506 l 1
 726 749 l 1
 136 749 l 1
 136 506 l 1
EndSplineSet
EndChar

StartChar: multiply
Encoding: 151 215 300
Width: 807
VWidth: 0
GlyphClass: 2
Flags: W
LayerCount: 2
Fore
SplineSet
229 280 m 1
 404 456 l 1
 580 280 l 1
 743 445 l 1
 668 517 651 535 568 619 c 1
 743 795 l 1
 580 961 l 1
 404 784 l 1
 229 961 l 1
 64 795 l 1
 239 619 l 1
 64 445 l 1
 229 280 l 1
EndSplineSet
EndChar

StartChar: nine
Encoding: 25 57 305
Width: 1053
VWidth: 0
GlyphClass: 2
Flags: W
LayerCount: 2
Fore
SplineSet
524 1652 m 0
 179 1652 57 1415 57 1052 c 0
 57 786 155 566 417 575 c 0
 498 578 573 605 604 659 c 1
 604 579 l 2
 604 316 611 257 526 257 c 0
 452 257 452 311 452 437 c 1
 96 437 l 1
 96 406 l 2
 96 125 185 -27 522 -27 c 0
 908 -27 999 199 999 524 c 2
 999 1107 l 2
 999 1428 863 1652 524 1652 c 0
524 1376 m 0
 600 1376 604 1292 604 1197 c 2
 604 919 l 1
 594 900 568 868 529 868 c 0
 450 868 450 955 450 1103 c 0
 450 1297 451 1376 524 1376 c 0
EndSplineSet
EndChar

StartChar: numbersign
Encoding: 3 35 307
Width: 1086
VWidth: 0
GlyphClass: 2
Flags: W
LayerCount: 2
Fore
SplineSet
191 0 m 1
 401 0 l 1
 443 537 l 1
 558 537 l 1
 518 0 l 1
 727 0 l 1
 770 537 l 1
 968 537 l 1
 968 818 l 1
 804 818 l 1
 798 871 l 1
 948 871 l 1
 948 1156 l 1
 832 1156 l 1
 873 1652 l 1
 660 1652 l 1
 621 1156 l 1
 507 1156 l 1
 547 1652 l 1
 333 1652 l 1
 294 1156 l 1
 89 1156 l 1
 89 871 l 1
 259 871 l 1
 265 818 l 1
 109 818 l 1
 109 537 l 1
 232 537 l 1
 191 0 l 1
472 871 m 1
 585 871 l 1
 591 818 l 1
 477 818 l 1
 472 871 l 1
EndSplineSet
EndChar

StartChar: o
Encoding: 79 111 308
Width: 991
VWidth: 0
GlyphClass: 2
Flags: W
HStem: -27 19
VStem: 39 374 513 374
LayerCount: 2
Fore
SplineSet
426 338 m 2
 426 879 l 2
 426 953 450 981 494 981 c 0
 541 981 565 956 565 879 c 2
 565 338 l 2
 565 261 541 236 494 236 c 0
 450 236 426 264 426 338 c 2
60 344 m 2
 60 90 245 -27 493 -27 c 0
 741 -27 931 89 931 344 c 2
 931 873 l 2
 931 1128 741 1244 493 1244 c 0
 245 1244 60 1127 60 873 c 2
 60 344 l 2
EndSplineSet
EndChar

StartChar: oe
Encoding: 272 339 313
Width: 1445
VWidth: 0
GlyphClass: 2
Flags: W
HStem: -28 214 1032 212<474.5 488.5 334 503>
VStem: 60 365<323 334 334 909> 552 392<302 322 322 560 760 930> 1049 339<760 861 861 961 760 760>
LayerCount: 2
Fore
SplineSet
408.943 -28.2423 m 0
 578.899 -28.2423 676.588 34.286 726 120 c 1
 766.693 25.0502 883.447 -29.7543 1034.41 -29.7543 c 0
 1262.27 -29.7543 1389 103.121 1389 302 c 2
 1389 484 l 1
 1044 484 l 1
 1044 301 l 2
 1044 228 1033 186 995 186 c 0
 963 186 944 229 944 302 c 2
 944 560 l 1
 1388 560 l 1
 1388 861 l 2
 1388 1081 1284 1244 1024 1244 c 0
 929 1244 778 1196 736 1089 c 1
 699 1196 539 1244 438 1244 c 0
 230 1244 60 1145 60 909 c 2
 60 334 l 2
 60 78.0679 238.978 -28.2423 408.943 -28.2423 c 0
488 1032 m 0
 518 1032 552 1012 552 930 c 2
 552 322 l 2
 552 197 511 186 482 186 c 0
 450 186 425 237 425 323 c 2
 425 930 l 2
 425 1016 461 1032 488 1032 c 0
1049 961 m 2
 1049 760 l 1
 944 760 l 1
 944 961 l 2
 944 1018.46 978.922 1031.9 994.785 1031.9 c 0
 1012.79 1031.9 1049 1011.42 1049 961 c 2
EndSplineSet
EndChar

StartChar: ogonek
Encoding: 364 731 314
Width: 557
VWidth: 0
GlyphClass: 2
Flags: W
LayerCount: 2
Fore
SplineSet
429 -529 m 1
 457 -350 l 1
 406 -350 281 -352 281 -230 c 0
 281 -142 310 -66 322 21 c 1
 158 21 l 1
 73 -68 23 -194 23 -295 c 0
 23 -528 290 -534 429 -529 c 1
EndSplineSet
EndChar

StartChar: one
Encoding: 17 49 318
Width: 665
VWidth: 0
GlyphClass: 2
Flags: W
LayerCount: 2
Fore
SplineSet
199 0 m 1
 585 0 l 1
 585 1626 l 1
 281 1626 l 1
 221 1548 76 1468 20 1443 c 1
 20 1157 l 1
 199 1232 l 1
 199 0 l 1
EndSplineSet
EndChar

StartChar: onehalf
Encoding: 125 189 319
Width: 1602
VWidth: 0
GlyphClass: 2
Flags: W
HStem: 729 162
VStem: 1000 188 1334 199
LayerCount: 2
Fore
SplineSet
1015.57 0 m 1
 1507.68 0 l 1
 1507.68 159.832 l 1
 1250.3 159.832 l 1
 1405.87 371.36 l 2
 1469 457 1533 545.435 1533 656.21 c 0
 1533 802.327 1407.52 890.42 1251.38 890.42 c 0
 1073.09 890.42 1000.29 767.513 1000.29 613.482 c 2
 1000.29 562.315 l 1
 1200.21 562.315 l 1
 1192.16 591.678 1188.67 616.568 1188.67 637.433 c 0
 1188.67 703.005 1223.11 728.831 1258.42 728.831 c 0
 1295.54 728.831 1333.61 700.289 1333.61 659.375 c 0
 1333.61 590.8 1278 522 1238.13 467.365 c 2
 1015.57 159.832 l 1
 1015.57 0 l 1
280 810 m 1
 516 810 l 1
 516 1641 l 1
 357 1641 l 1
 318 1592 243 1535 138 1478 c 1
 138 1310 l 1
 280 1388 l 1
 280 810 l 1
411 0 m 1
 587 0 l 1
 1157 1641 l 1
 980 1641 l 1
 411 0 l 1
EndSplineSet
EndChar

StartChar: onequarter
Encoding: 124 188 320
Width: 1602
VWidth: 0
GlyphClass: 2
Flags: W
LayerCount: 2
Fore
SplineSet
1185 0 m 1
 1419 0 l 1
 1419 226 l 1
 1534 226 l 1
 1534 372 l 1
 1419 372 l 1
 1419 847 l 1
 1185 847 l 1
 901 361 l 1
 901 226 l 1
 1185 226 l 1
 1185 0 l 1
280 810 m 1
 516 810 l 1
 516 1641 l 1
 357 1641 l 1
 318 1592 243 1535 138 1478 c 1
 138 1310 l 1
 280 1388 l 1
 280 810 l 1
411 0 m 1
 587 0 l 1
 1157 1641 l 1
 980 1641 l 1
 411 0 l 1
1039 372 m 1
 1185 648 l 1
 1185 372 l 1
 1039 372 l 1
EndSplineSet
EndChar

StartChar: ordmasculine
Encoding: 122 186 322
Width: 967
VWidth: 0
GlyphClass: 2
Flags: W
LayerCount: 2
Fore
SplineSet
478 589 m 0
 602 589 576 426 576 412 c 2
 576 122 l 2
 576 109 604 -56 478 -56 c 0
 354 -56 374 114 374 122 c 2
 374 412 l 2
 374 424 356 589 478 589 c 0
484 859 m 0
 209 859 104 715 104 467 c 2
 104 69 l 2
 104 -174 209 -324 484 -324 c 0
 737 -324 864 -156 864 69 c 2
 864 467 l 2
 864 695 736 859 484 859 c 0
EndSplineSet
EndChar

StartChar: oslash
Encoding: 184 248 323
Width: 991
VWidth: 0
GlyphClass: 2
Flags: W
LayerCount: 2
Fore
SplineSet
140 -142 m 1
 219 -177 l 1
 857 1346 l 1
 778 1381 l 1
 140 -142 l 1
EndSplineSet
Refer: 308 111 N 1 0 0 1 0 0 2
EndChar

StartChar: paragraph
Encoding: 118 182 326
Width: 937
VWidth: 0
GlyphClass: 2
Flags: W
LayerCount: 2
Fore
SplineSet
356 0 m 1
 601 0 l 1
 601 803 l 1
 664 803 l 1
 664 0 l 1
 893 0 l 1
 893 1474 l 1
 428 1474 l 2
 223 1474 21 1404 21 1137 c 0
 21 928 175 809 356 803 c 1
 356 0 l 1
EndSplineSet
EndChar

StartChar: parenleft
Encoding: 8 40 327
Width: 690
VWidth: 0
GlyphClass: 2
Flags: W
VStem: 109 341<621.5 1070 614 1089.5>
LayerCount: 2
Fore
SplineSet
633 -58 m 1
 633 178 l 1
 503 178 450 384 450 844 c 0
 450 1296 491 1528 633 1528 c 1
 633 1764 l 1
 162 1767 109 1335 109 844 c 0
 109 399 162 -62 633 -58 c 1
EndSplineSet
EndChar

StartChar: parenright
Encoding: 9 41 328
Width: 690
VWidth: 0
GlyphClass: 2
Flags: W
VStem: 292 341<621.5 1070>
LayerCount: 2
Fore
SplineSet
109 -58 m 1
 109 178 l 1
 239 178 292 384 292 844 c 0
 292 1296 251 1528 109 1528 c 1
 109 1764 l 1
 580 1767 633 1335 633 844 c 0
 633 399 580 -62 109 -58 c 1
EndSplineSet
EndChar

StartChar: percent
Encoding: 5 37 329
Width: 2147
VWidth: 0
GlyphClass: 2
Flags: W
LayerCount: 2
Fore
SplineSet
508 1411 m 0
 399 1411 398 1301 398 1131 c 2
 398 1207 l 2
 398 1037 402 908 508 908 c 0
 614 908 618 1037 618 1207 c 2
 618 1129 l 2
 618 1300 619 1411 508 1411 c 0
508 1642 m 0
 812 1642 918 1446 921 1126 c 1
 921 1208 l 2
 921 895 810 679 508 679 c 0
 206 679 99 895 99 1208 c 2
 99 1123 l 1
 101 1443 202 1642 508 1642 c 0
1616 743 m 0
 1506 743 1505 631 1505 457 c 2
 1505 539 l 2
 1505 369 1510 240 1616 240 c 0
 1722 240 1725 369 1725 539 c 2
 1725 455 l 2
 1725 630 1728 743 1616 743 c 0
1616 974 m 0
 1920 974 2025 780 2028 460 c 1
 2028 541 l 2
 2028 227 1917 11 1616 11 c 0
 1314 11 1206 227 1206 541 c 2
 1206 460 l 1
 1209 778 1311 974 1616 974 c 0
701 0 m 1
 884 0 l 1
 1414 1696 l 1
 1230 1696 l 1
 701 0 l 1
EndSplineSet
EndChar

StartChar: period
Encoding: 14 46 330
Width: 519
VWidth: 0
GlyphClass: 2
Flags: W
LayerCount: 2
Fore
SplineSet
83 0 m 1
 431 0 l 1
 431 340 l 1
 83 340 l 1
 83 0 l 1
EndSplineSet
EndChar

StartChar: periodcentered
Encoding: 119 183 331
AltUni2: 002219.ffffffff.0
Width: 497
VWidth: 0
GlyphClass: 2
Flags: W
LayerCount: 2
Fore
SplineSet
76 601 m 1
 422 601 l 1
 422 939 l 1
 76 939 l 1
 76 601 l 1
EndSplineSet
EndChar

StartChar: plus
Encoding: 11 43 332
Width: 730
VWidth: 0
GlyphClass: 2
Flags: W
HStem: 332 644<245 484 245 484>
VStem: 68 594<557 761 557 761>
LayerCount: 2
Fore
SplineSet
245 332 m 1
 484 332 l 1
 484 557 l 1
 662 557 l 1
 662 761 l 1
 484 761 l 1
 484 976 l 1
 245 976 l 1
 245 761 l 1
 68 761 l 1
 68 557 l 1
 245 557 l 1
 245 332 l 1
EndSplineSet
EndChar

StartChar: plusminus
Encoding: 113 177 333
Width: 882
VWidth: 0
GlyphClass: 2
Flags: W
LayerCount: 2
Fore
SplineSet
310 352 m 1
 553 352 l 1
 553 527 l 1
 726 527 l 1
 726 771 l 1
 553 771 l 1
 553 946 l 1
 310 946 l 1
 310 771 l 1
 136 771 l 1
 136 527 l 1
 310 527 l 1
 310 352 l 1
136 0 m 1
 726 0 l 1
 726 243 l 1
 136 243 l 1
 136 0 l 1
EndSplineSet
EndChar

StartChar: product
Encoding: 513 8719 334
Width: 1144
VWidth: 0
GlyphClass: 2
Flags: W
LayerCount: 2
Fore
SplineSet
125 0 m 1
 384 0 l 1
 384 1440 l 1
 759 1440 l 1
 759 0 l 1
 1018 0 l 1
 1018 1643 l 1
 125 1643 l 1
 125 0 l 1
EndSplineSet
EndChar

StartChar: question
Encoding: 31 63 336
Width: 918
VWidth: 0
GlyphClass: 2
Flags: W
HStem: 1368 319
VStem: 47 345 527 370
LayerCount: 2
Fore
SplineSet
217 443 m 1
 557 443 l 1
 557 644 l 1
 744 748 897 1033 897 1269 c 0
 897 1531 755 1687 452 1687 c 0
 136 1687 47 1505 47 1300 c 0
 47 1214 60 1179 84 1085 c 1
 418 1164 l 1
 400.909 1217.41 392.248 1222.24 392.248 1282.22 c 0
 392.248 1337.98 428.519 1368.44 463.459 1368.44 c 0
 495.926 1368.44 527.244 1342.14 527.244 1285.41 c 0
 527.244 1037.69 393.37 850.389 217 711 c 1
 217 443 l 1
227 0 m 1
 587 0 l 1
 587 348 l 1
 227 348 l 1
 227 0 l 1
EndSplineSet
EndChar

StartChar: quotedbl
Encoding: 2 34 338
Width: 707
VWidth: 0
GlyphClass: 2
Flags: W
LayerCount: 2
Fore
SplineSet
516 1000 m 1
 680 1000 l 1
 734 1655 l 1
 420 1655 l 1
 516 1000 l 1
108 1000 m 1
 272 1000 l 1
 326 1655 l 1
 12 1655 l 1
 108 1000 l 1
EndSplineSet
EndChar

StartChar: quoteleft
Encoding: 497 8216 342
Width: 568
VWidth: 0
GlyphClass: 2
Flags: W
LayerCount: 2
Fore
SplineSet
122 1141 m 1
 434 1141 l 1
 434 1455 l 1
 280 1455 l 1
 280 1543 295 1573 409 1573 c 1
 390 1686 l 1
 131 1686 122 1546 122 1141 c 1
EndSplineSet
EndChar

StartChar: quotesingle
Encoding: 7 39 345
Width: 314
VWidth: 0
GlyphClass: 2
Flags: W
LayerCount: 2
Fore
SplineSet
70 999 m 1
 255 999 l 1
 245 939 338 1713 327 1652 c 1
 0 1652 l 1
 70 999 l 1
EndSplineSet
EndChar

StartChar: r
Encoding: 82 114 346
Width: 752
VWidth: 0
GlyphClass: 2
Flags: W
LayerCount: 2
Fore
SplineSet
261 191 m 1
 351.086 628.839 475.89 895.903 706.308 912.208 c 0
 713.761 912.735 721.324 913 729 913 c 1
 729 1221 l 1
 711 1228 694 1231 678 1231 c 0
 469 1231 327 705 261 277 c 1
 261 191 l 1
EndSplineSet
Refer: 288 -1 N 1 0 0 1 1 0 2
EndChar

StartChar: registered
Encoding: 110 174 350
Width: 1706
VWidth: 0
GlyphClass: 2
Flags: W
HStem: -22 48<598 1109 598 1136.5> 1598 48<598 1109>
VStem: 60 59<615 1013> 1588 58<615 1013 611 1013.5>
LayerCount: 2
Fore
SplineSet
854 26 m 0
 342 26 119 416 119 814 c 0
 119 1213 342 1598 854 1598 c 0
 1364 1598 1588 1213 1588 814 c 0
 1588 416 1364 26 854 26 c 0
854 -22 m 0
 1419 -22 1646 410 1646 812 c 0
 1646 1214 1417 1646 854 1646 c 0
 289 1646 60 1214 60 812 c 0
 60 411 289 -22 854 -22 c 0
EndSplineSet
Refer: 197 99 N 1.0747 0 0 1.0747 326 159 2
EndChar

StartChar: ring
Encoding: 363 730 351
Width: 729
VWidth: 0
GlyphClass: 2
Flags: W
LayerCount: 2
Fore
SplineSet
356 1483 m 0
 321 1483 308 1542 308 1580 c 0
 308 1616 322 1672 356 1672 c 0
 389 1672 401 1610 401 1577 c 0
 401 1542 389 1483 356 1483 c 0
356 1354 m 0
 482 1354 598 1427 598 1578 c 0
 598 1728 481 1801 356 1801 c 0
 230 1801 115 1729 115 1578 c 0
 115 1427 230 1354 356 1354 c 0
EndSplineSet
EndChar

StartChar: s
Encoding: 83 115 352
Width: 865
VWidth: 0
GlyphClass: 2
Flags: W
LayerCount: 2
Fore
SplineSet
410 1246 m 0
 212 1246 36 1095 36 889 c 1
 35 756 153 629 260 534 c 2
 305 494 l 2
 384 424 491 347 492 297 c 0
 493 259 469 234 440 234 c 0
 366 234 324 342 293 418 c 1
 18 327 l 1
 81 96 227 -12 417 -26 c 0
 623 -41 845 85 845 317 c 0
 845 477 722 579 614 676 c 2
 576 710 l 2
 480 796 363 861 373 923 c 0
 375 937 385 973 432 969 c 0
 493 964 532 873 556 806 c 1
 815 929 l 1
 760 1118 608 1246 410 1246 c 0
EndSplineSet
EndChar

StartChar: section
Encoding: 103 167 358
Width: 1001
VWidth: 0
GlyphClass: 2
Flags: W
LayerCount: 2
Fore
SplineSet
491 -13 m 0
 712 -13 891 97 891 336 c 1
 892 440 821 534 740 598 c 1
 838 664 878 765 878 874 c 0
 879 1002 801 1100 695 1176 c 0
 645 1213 631 1214 580 1246 c 1
 525 1271 405 1280 405 1374 c 0
 405 1431 438 1459 496 1459 c 0
 579 1459 633 1361 665 1299 c 1
 898 1377 l 1
 850 1580 713 1730 493 1730 c 0
 273 1730 89 1618 89 1380 c 0
 89 1269 176 1200 262 1154 c 1
 151 1090 104 976 104 860 c 0
 104 738 150 674 221 634 c 1
 263 606 274 611 320 587 c 1
 449 530 575 494 575 337 c 0
 575 285 539 258 489 258 c 0
 412 258 363 351 341 411 c 1
 100 332 l 1
 150 137 270 -13 491 -13 c 0
488 795 m 1
 452 820 462 793 423 824 c 1
 417 826 419 837 419 856 c 0
 419 892 448 932 476 964 c 1
 505 942 l 1
 527 923 561 892 561 876 c 0
 561 836 521 815 488 795 c 1
EndSplineSet
EndChar

StartChar: semicolon
Encoding: 27 59 359
Width: 494
VWidth: 0
GlyphClass: 2
Flags: W
HStem: -291 111<113 128>
VStem: 268 151
LayerCount: 2
Fore
SplineSet
128 -291 m 1
 321.384 -289.421 418 -167 418.665 55 c 2
 419 341 l 1
 74 341 l 1
 74 0 l 1
 268 0 l 1
 268 -130 185 -164 113 -180 c 1
 128 -291 l 1
72 841 m 1
 416 841 l 1
 416 1179 l 1
 72 1179 l 1
 72 841 l 1
EndSplineSet
EndChar

StartChar: seven
Encoding: 23 55 360
Width: 798
VWidth: 0
GlyphClass: 2
Flags: W
LayerCount: 2
Fore
SplineSet
140 0 m 1
 516 0 l 1
 786 1347 l 1
 786 1626 l 1
 37 1626 l 1
 36 1338 l 1
 413 1338 l 1
 140 0 l 1
EndSplineSet
EndChar

StartChar: six
Encoding: 22 54 361
Width: 1069
VWidth: 0
GlyphClass: 2
Flags: W
LayerCount: 2
Fore
SplineSet
552 -27 m 0
 897 -27 1019 210 1019 573 c 0
 1019 839 921 1059 659 1050 c 0
 578 1047 503 1020 472 966 c 1
 472 1046 l 2
 472 1309 468 1368 553 1368 c 0
 627 1368 623 1314 623 1188 c 1
 979 1188 l 1
 979 1219 l 2
 979 1500 887 1652 550 1652 c 0
 164 1652 77 1426 77 1101 c 2
 77 518 l 2
 77 197 213 -27 552 -27 c 0
552 249 m 0
 476 249 472 333 472 428 c 2
 472 706 l 1
 482 725 508 757 547 757 c 0
 626 757 626 670 626 522 c 0
 626 328 625 249 552 249 c 0
EndSplineSet
EndChar

StartChar: slash
Encoding: 15 47 362
Width: 901
VWidth: 0
GlyphClass: 2
Flags: W
LayerCount: 2
Fore
SplineSet
130 0 m 1
 304 0 l 1
 834 1696 l 1
 659 1696 l 1
 130 0 l 1
EndSplineSet
EndChar

StartChar: sterling
Encoding: 99 163 364
Width: 1142
VWidth: 0
GlyphClass: 2
Flags: W
LayerCount: 2
Fore
SplineSet
87 0 m 1
 1023 0 l 1
 1023 322 l 1
 606 322 l 1
 606 635 l 1
 809 635 l 1
 809 925 l 1
 606 925 l 1
 606 1100 l 2
 606 1201 616 1375 632 1371 c 1
 660 1367 660 1203 660 1159 c 1
 1036 1159 l 1
 1036 1458 990 1686 629 1686 c 0
 251 1686 194 1406 194 1086 c 2
 194 928 l 1
 87 928 l 1
 87 635 l 1
 194 635 l 1
 194 272 l 1
 87 215 l 1
 87 0 l 1
EndSplineSet
EndChar

StartChar: t
Encoding: 84 116 365
Width: 664
VWidth: 0
GlyphClass: 2
Flags: W
LayerCount: 2
Fore
SplineSet
414 -13 m 0
 485 -13 573 -14 639 7 c 1
 639 304 l 1
 607 300 578 300 546 300 c 0
 493 300 469 321 469 361 c 2
 469 958 l 1
 603 958 l 1
 603 1217 l 1
 469 1217 l 1
 469 1605 l 1
 92 1605 l 1
 92 1217 l 1
 2 1217 l 1
 2 958 l 1
 92 958 l 1
 92 469 l 2
 92 234 122 -13 414 -13 c 0
EndSplineSet
EndChar

StartChar: three
Encoding: 19 51 370
Width: 1069
VWidth: 0
GlyphClass: 2
Flags: W
LayerCount: 2
Fore
SplineSet
539 -35 m 0
 883 -35 1008 187 1008 494 c 0
 1008 735 920 824 817 865 c 1
 920 891 1008 1038 1008 1230 c 0
 1008 1536 825 1688 532 1688 c 0
 246 1688 64 1521 64 1211 c 2
 64 1095 l 1
 448 1095 l 1
 448 1200 l 2
 448 1309 463 1382 534 1382 c 0
 606 1382 630 1322 630 1200 c 0
 630 1037 604 958 462 958 c 2
 397 958 l 1
 397 718 l 1
 469 718 l 2
 605 718 630 643 630 481 c 0
 630 343 615 289 545 289 c 0
 472 289 448 339 448 511 c 2
 448 577 l 1
 64 577 l 1
 64 518 l 2
 64 192 164 -35 539 -35 c 0
EndSplineSet
EndChar

StartChar: threequarters
Encoding: 126 190 371
Width: 1707
VWidth: 0
GlyphClass: 2
Flags: W
LayerCount: 2
Fore
SplineSet
397 608 m 0
 547 608 644 687 644 832 c 0
 644 920 612 951 536 975 c 1
 612 1003 644 1045 644 1130 c 0
 644 1286 544 1361 392 1361 c 0
 240 1361 153 1268 153 1136 c 1
 389 1136 l 1
 389 1130 372 1200 392 1200 c 0
 426 1200 406 1136 406 1133 c 0
 406 1043 383 1049 302 1062 c 1
 302 890 l 1
 387 898 406 924 406 832 c 1
 406 839 428 770 396 770 c 0
 374 770 389 837 389 833 c 1
 153 833 l 1
 153 699 241 608 397 608 c 0
1153 -19 m 1
 1387 -19 l 1
 1387 207 l 1
 1502 207 l 1
 1502 372 l 1
 1387 372 l 1
 1387 828 l 1
 1217 828 l 1
 881 361 l 1
 881 207 l 1
 1153 207 l 1
 1153 -19 l 1
505 0 m 1
 680 0 l 1
 1210 1696 l 1
 1034 1696 l 1
 505 0 l 1
1153 372 m 1
 1153 357 l 1
 1123 372 l 1
 1153 372 l 1
EndSplineSet
EndChar

StartChar: tilde
Encoding: 365 732 372
Width: 867
VWidth: 0
GlyphClass: 2
Flags: W
HStem: 1299 238<594 614 568 701> 1393 229<300 355.5 211.5 378>
VStem: 116 171<1309 1309> 618 155<1610 1610>
LayerCount: 2
Fore
SplineSet
644 1299 m 0
 758 1299 774 1474 773 1610 c 1
 618 1610 l 1
 621 1599 630 1537 598 1537 c 0
 538 1537 429 1622 282 1622 c 0
 141 1622 115 1488 116 1309 c 1
 287 1309 l 1
 284 1324 273 1393 327 1393 c 0
 429 1393 544 1299 644 1299 c 0
EndSplineSet
EndChar

StartChar: tildecomb
Encoding: 370 771 373
Width: 0
VWidth: 0
GlyphClass: 2
Flags: W
HStem: 1299 238<160.497 180.497 134.497 267.497> 1393 229<-133.503 -78.003 -222.003 -55.503>
VStem: -318 171 184 155
LayerCount: 2
Fore
SplineSet
210.497 1299 m 0
 324.497 1299 340.497 1474 339.497 1610 c 1
 184.497 1610 l 1
 187.497 1599 196.497 1537 164.497 1537 c 0
 104.497 1537 -4.50293 1622 -151.503 1622 c 0
 -292.503 1622 -318.503 1488 -317.503 1309 c 1
 -146.503 1309 l 1
 -149.503 1324 -160.503 1393 -106.503 1393 c 0
 -4.50293 1393 110.497 1299 210.497 1299 c 0
EndSplineSet
EndChar

StartChar: trademark
Encoding: 512 8482 374
Width: 2340
VWidth: 0
GlyphClass: 2
Flags: W
LayerCount: 2
Fore
SplineSet
724 617 m 1
 895 617 l 1
 895 1054 l 1
 993 617 l 1
 1108 617 l 1
 1205 1050 l 1
 1205 617 l 1
 1378 617 l 1
 1378 1397 l 1
 1123 1397 l 1
 1049 1023 l 1
 973 1397 l 1
 724 1397 l 1
 724 617 l 1
340 617 m 1
 522 617 l 1
 522 1228 l 1
 670 1228 l 1
 670 1397 l 1
 194 1397 l 1
 194 1228 l 1
 340 1228 l 1
 340 617 l 1
EndSplineSet
EndChar

StartChar: tt
Encoding: 530 -1 375
Width: 1208
VWidth: 0
GlyphClass: 2
Flags: W
LayerCount: 2
Fore
SplineSet
403 -13 m 0
 473 -13 562 -14 628 7 c 1
 628 304 l 1
 596 300 568 300 536 300 c 0
 483 300 457 321 457 361 c 2
 457 958 l 1
 668 958 l 1
 668 469 l 2
 668 234 698 -13 990 -13 c 0
 1060 -13 1149 -14 1215 7 c 1
 1215 304 l 1
 1183 300 1154 300 1122 300 c 0
 1069 300 1044 321 1044 361 c 2
 1044 958 l 1
 1179 958 l 1
 1179 1217 l 1
 1044 1217 l 1
 1044 1605 l 1
 668 1605 l 1
 668 1217 l 1
 457 1217 l 1
 457 1605 l 1
 81 1605 l 1
 81 1217 l 1
 21 1217 l 1
 21 958 l 1
 81 958 l 1
 81 469 l 2
 81 234 111 -13 403 -13 c 0
EndSplineSet
EndChar

StartChar: two
Encoding: 18 50 376
Width: 1069
VWidth: 0
GlyphClass: 2
Flags: W
LayerCount: 2
Fore
SplineSet
83 0 m 1
 978 0 l 1
 978 303 l 1
 528 303 l 1
 785 704 l 2
 893 873 1026 1034 1026 1244 c 0
 1026 1521 845 1688 549 1688 c 0
 211 1688 73 1455 73 1163 c 2
 73 1066 l 1
 452 1066 l 1
 452 1285 467 1339 530 1357 c 0
 591 1374 648 1341 648 1250 c 0
 648 1120 538 993 467 886 c 2
 83 303 l 1
 83 0 l 1
EndSplineSet
EndChar

StartChar: uc_horiz_bar
Encoding: 531 -1 380
Width: 500
VWidth: 0
Flags: W
LayerCount: 2
Fore
SplineSet
82 0 m 1
 845 0 l 1
 845 316 l 1
 82 316 l 1
 82 0 l 1
EndSplineSet
EndChar

StartChar: uc_main_stem
Encoding: 532 -1 381
Width: 0
VWidth: 0
GlyphClass: 2
Flags: W
LayerCount: 2
Fore
SplineSet
81 0 m 1
 493 0 l 1
 493 1626 l 1
 81 1626 l 1
 81 0 l 1
EndSplineSet
EndChar

StartChar: uc_part_stem
Encoding: 533 -1 382
Width: 0
VWidth: 0
GlyphClass: 2
Flags: W
LayerCount: 2
Fore
SplineSet
81 362 m 1
 493 362 l 1
 493 1626 l 1
 81 1626 l 1
 81 362 l 1
EndSplineSet
EndChar

StartChar: underscore
Encoding: 63 95 388
Width: 712
VWidth: 0
GlyphClass: 2
Flags: W
HStem: -278 243<-28.5 740.5 -28.5 740.5>
LayerCount: 2
Fore
SplineSet
-28.5 -278 m 1
 740.5 -278 l 1
 740.5 -35 l 1
 -28.5 -35 l 1
 -28.5 -278 l 1
EndSplineSet
EndChar

StartChar: uni00AD
Encoding: 109 173 391
Width: 781
VWidth: 0
GlyphClass: 2
Flags: W
LayerCount: 2
Fore
SplineSet
664 669 m 1
 138 669 l 1
 138 383 l 1
 664 383 l 1
 664 669 l 1
EndSplineSet
EndChar

StartChar: uni00B2
Encoding: 114 178 392
Width: 599
VWidth: 0
GlyphClass: 2
Flags: W
LayerCount: 2
Fore
SplineSet
51 524 m 1
 542 524 l 1
 542 686 l 1
 292 686 l 1
 343 754 339 704 427 826 c 1
 493 913 536 989 536 1049 c 0
 536 1194 437 1277 289 1277 c 0
 139 1277 50 1186 50 1052 c 1
 284 1052 l 1
 284 1048 266 1115 288 1115 c 0
 325 1115 304 1049 304 1050 c 1
 304 1015 289 973 249 910 c 0
 137 731 88 725 51 676 c 1
 51 524 l 1
EndSplineSet
EndChar

StartChar: uni00B3
Encoding: 115 179 393
Width: 769
VWidth: 0
GlyphClass: 2
Flags: W
LayerCount: 2
Fore
SplineSet
379 608 m 0
 529 608 626 687 626 832 c 0
 626 920 594 951 518 975 c 1
 594 1003 626 1045 626 1130 c 0
 626 1286 526 1361 374 1361 c 0
 222 1361 135 1268 135 1136 c 1
 372 1136 l 1
 372 1130 355 1200 374 1200 c 0
 408 1200 388 1136 388 1133 c 0
 388 1043 365 1049 284 1062 c 1
 284 890 l 1
 369 898 388 924 388 832 c 1
 388 839 410 770 378 770 c 0
 356 770 372 837 372 833 c 1
 135 833 l 1
 135 699 223 608 379 608 c 0
EndSplineSet
EndChar

StartChar: uni00B9
Encoding: 121 185 394
Width: 522
VWidth: 0
GlyphClass: 2
Flags: W
LayerCount: 2
Fore
SplineSet
160 607 m 1
 395 607 l 1
 395 1370 l 1
 319 1370 l 1
 251 1298 174 1243 69 1186 c 1
 69 1038 l 1
 51 1034 183 1019 160 1003 c 1
 160 607 l 1
EndSplineSet
EndChar

StartChar: uni0237
Encoding: 358 567 436
Width: 668
VWidth: 0
GlyphClass: 2
Flags: W
LayerCount: 2
Fore
SplineSet
291 -276 m 0
 500 -276 602 -136 602 52 c 2
 602 1217 l 1
 227 1217 l 1
 227 78 l 2
 227 35 209 9 183 9 c 0
 149 9 118 19 91 29 c 1
 91 -245 l 1
 154 -262 218 -276 291 -276 c 0
EndSplineSet
EndChar

StartChar: uni0307
Encoding: 373 775 437
Width: 0
VWidth: 0
GlyphClass: 2
Flags: W
HStem: 1396 341<-148.5 196.5 -148.5 196.5>
VStem: -148 345
LayerCount: 2
Fore
SplineSet
-148.5 1396 m 1
 196.5 1396 l 1
 196.5 1737 l 1
 -148.5 1737 l 1
 -148.5 1396 l 1
EndSplineSet
EndChar

StartChar: uni0308
Encoding: 374 776 438
Width: 0
VWidth: 0
Flags: W
HStem: 1385 328<-378 -97 -378 -97 97 378>
LayerCount: 2
Fore
SplineSet
97 1385 m 1
 378 1385 l 1
 378 1713 l 1
 97 1713 l 1
 97 1385 l 1
-378 1385 m 1
 -97 1385 l 1
 -97 1713 l 1
 -378 1713 l 1
 -378 1385 l 1
EndSplineSet
EndChar

StartChar: uni030A
Encoding: 375 778 439
Width: 0
VWidth: 0
GlyphClass: 2
Flags: W
HStem: 1354 129<-26 8 -26 54.5> 1672 129<-25.5 8>
VStem: -250 193 36 197
LayerCount: 2
Fore
SplineSet
-8.5 1483 m 0
 -43.5 1483 -56.5 1542 -56.5 1580 c 0
 -56.5 1616 -42.5 1672 -8.5 1672 c 0
 24.5 1672 36.5 1610 36.5 1577 c 0
 36.5 1542 24.5 1483 -8.5 1483 c 0
-8.5 1354 m 0
 117.5 1354 233.5 1427 233.5 1578 c 0
 233.5 1728 116.5 1801 -8.5 1801 c 0
 -134.5 1801 -249.5 1729 -249.5 1578 c 0
 -249.5 1427 -134.5 1354 -8.5 1354 c 0
EndSplineSet
EndChar

StartChar: uni030F
Encoding: 377 783 440
Width: 1011
VWidth: 0
GlyphClass: 2
Flags: W
LayerCount: 2
Fore
SplineSet
316 1264 m 1
 561 1264 l 1
 426 1712 l 1
 120 1712 l 1
 316 1264 l 1
637 1264 m 1
 879 1264 l 1
 743 1712 l 1
 440 1712 l 1
 637 1264 l 1
EndSplineSet
EndChar

StartChar: uni0311
Encoding: 378 785 441
Width: 651
VWidth: 0
GlyphClass: 2
Flags: W
LayerCount: 2
Fore
SplineSet
266 1344 m 1
 258 1353 255 1445 306 1445 c 0
 357 1445 354 1353 346 1344 c 1
 525 1344 l 1
 529 1450 453 1559 306 1559 c 0
 159 1559 83 1450 87 1344 c 1
 266 1344 l 1
EndSplineSet
EndChar

StartChar: uni0326
Encoding: 379 806 442
Width: 457
VWidth: 0
GlyphClass: 2
Flags: W
LayerCount: 2
Fore
SplineSet
101 -699 m 1
 294.384 -697.421 391 -575 391.665 -353 c 2
 392 -67 l 1
 47 -67 l 1
 47 -408 l 1
 241 -408 l 1
 241 -538 158 -572 86 -588 c 1
 101 -699 l 1
EndSplineSet
EndChar

StartChar: afii10058
Encoding: 388 1033 450
Width: 1805
VWidth: 0
GlyphClass: 2
Flags: W
HStem: 0 285
VStem: 1442 386
LayerCount: 2
Fore
SplineSet
20 0 m 1
 221 0 l 2
 541 0 617 153 617 445 c 1
 205 445 l 1
 205 326 152 283 20 286 c 1
 20 0 l 1
EndSplineSet
Refer: 380 -1 N 0.783046 0 0 1 341 1310 2
Refer: 381 -1 N 1 0 0 1 715 0 2
Refer: 381 -1 N 1 0 0 0.726012 124 445 2
Refer: 214 -1 N 1 0 0 1 567 0 2
EndChar

StartChar: afii10020
Encoding: 397 1043 458
Width: 911
VWidth: 0
GlyphClass: 2
Flags: W
LayerCount: 2
Fore
SplineSet
900 1321 m 1
 900 1626 l 1
 301 1626 l 1
 301 1321 l 1
 900 1321 l 1
EndSplineSet
Refer: 381 -1 N 1 0 0 1 7 0 2
EndChar

StartChar: afii10026
Encoding: 402 1048 460
Width: 1106
VWidth: 0
GlyphClass: 2
Flags: W
LayerCount: 2
Fore
SplineSet
1018 0 m 1
 1018 1626 l 1
 725 1626 l 1
 429 962 l 1
 429 1626 l 1
 88 1626 l 1
 88 0 l 1
 370 0 l 1
 664 767 l 1
 664 0 l 1
 1018 0 l 1
EndSplineSet
EndChar

StartChar: afii10033
Encoding: 409 1055 466
Width: 1176
VWidth: 0
GlyphClass: 2
Flags: W
LayerCount: 2
Fore
SplineSet
308 1331 m 1
 881 1331 l 1
 881 1626 l 1
 308 1626 l 1
 308 1331 l 1
EndSplineSet
Refer: 381 -1 N 1 0 0 1 7 0 2
Refer: 381 -1 N 1 0 0 1 595 0 2
EndChar

StartChar: afii10084
Encoding: 444 1090 476
Width: 917
VWidth: 0
GlyphClass: 2
Flags: W
HStem: 2 20 1094 105
VStem: 111 153 593 153
LayerCount: 2
Fore
SplineSet
76 968 m 1
 841 968 l 1
 841 1216 l 1
 76 1216 l 1
 76 968 l 1
EndSplineSet
Refer: 288 -1 N 1 0 0 1 190 0 2
EndChar

StartChar: afii10099
Encoding: 459 1106 480
Width: 1039
VWidth: 0
GlyphClass: 2
Flags: W
HStem: -338 172<349 390 390 391 349 601.5>
VStem: 595 372<104.965 210>
LayerCount: 2
Fore
SplineSet
-32.0879 1474 m 1
 -32.0879 1357 l 1
 896.912 1357 l 1
 896.912 1474 l 1
 -32.0879 1474 l 1
595 210 m 1
 595 -0.0703125 588 -166 391 -166 c 2
 349 -166 l 1
 349 -338 l 1
 390 -338 l 2
 813 -338 967 -246 967 210 c 1
 595 210 l 1
EndSplineSet
Refer: 287 -1 N 1 0 0 0.83119 11 210 2
Refer: 282 -1 N 1 0 0 1 1 0 2
EndChar

StartChar: afii10193
Encoding: 471 1119 491
Width: 1043
VWidth: 0
GlyphClass: 2
Flags: W
HStem: 2 20 1094 105
VStem: 111 153 593 153
LayerCount: 2
Fore
SplineSet
259 0 m 1
 788 0 l 1
 788 248 l 1
 259 248 l 1
 259 0 l 1
EndSplineSet
Refer: 288 -1 N 1 0 0 1 -1 0 2
Refer: 288 -1 N 1 0 0 1 518 0 2
EndChar

StartChar: afii00208
Encoding: 496 8213 506
Width: 4096
VWidth: 0
GlyphClass: 2
Flags: HW
LayerCount: 2
UndoRedoHistory
Layer: 1
Undoes
EndUndoes
Redoes
EndRedoes
EndUndoRedoHistory
Fore
SplineSet
2 713 m 1
 2 962 l 1
 4094 962 l 1
 4094 713 l 1
 2 713 l 1
EndSplineSet
EndChar

StartChar: uni2074
Encoding: 509 8308 507
Width: 782
VWidth: 0
GlyphClass: 2
Flags: W
LayerCount: 2
Fore
SplineSet
348 522 m 1
 581 522 l 1
 581 748 l 1
 698 748 l 1
 698 913 l 1
 581 913 l 1
 581 1370 l 1
 412 1370 l 1
 76 903 l 1
 76 748 l 1
 348 748 l 1
 348 522 l 1
319 913 m 1
 348 913 l 1
 348 898 l 1
 319 913 l 1
EndSplineSet
EndChar

StartChar: uniFB00
Encoding: 515 64256 509
Width: 1250
VWidth: 0
GlyphClass: 2
Flags: W
LayerCount: 2
Fore
SplineSet
112 0 m 1
 490 0 l 1
 490 958 l 1
 718 958 l 1
 718 0 l 1
 1095 0 l 1
 1095 958 l 1
 1230 958 l 1
 1230 1217 l 1
 1095 1217 l 1
 1095 1225 l 2
 1095 1308 1129 1303 1151 1303 c 0
 1170 1303 1240 1297 1236 1298 c 1
 1236 1581 l 1
 1250 1577 1116 1594 1009 1594 c 0
 784 1594 727 1427 719 1203 c 0
 719 1190 718 1230 718 1217 c 1
 490 1217 l 1
 490 1225 l 2
 490 1308 524 1303 545 1303 c 0
 565 1303 635 1297 630 1298 c 1
 630 1581 l 1
 645 1577 510 1594 404 1594 c 0
 178 1594 121 1427 114 1203 c 0
 114 1190 112 1230 112 1217 c 1
 80 1217 l 1
 80 958 l 1
 112 958 l 1
 112 0 l 1
EndSplineSet
EndChar

StartChar: uniFB01
Encoding: 516 64257 510
Width: 1179
VWidth: 0
GlyphClass: 2
Flags: W
LayerCount: 2
Fore
SplineSet
112 0 m 1
 490 0 l 1
 490 958 l 1
 726 958 l 1
 726 0 l 1
 1103 0 l 1
 1103 1217 l 1
 490 1217 l 1
 490 1225 l 2
 490 1308 524 1303 545 1303 c 0
 565 1303 635 1297 630 1298 c 1
 630 1581 l 1
 645 1577 510 1594 404 1594 c 0
 178 1594 121 1427 114 1203 c 0
 114 1190 112 1230 112 1217 c 1
 80 1217 l 1
 80 958 l 1
 112 958 l 1
 112 0 l 1
726 1256 m 1
 1103 1256 l 1
 1103 1593 l 1
 726 1593 l 1
 726 1256 l 1
EndSplineSet
EndChar

StartChar: uniFB02
Encoding: 517 64258 511
Width: 1152
VWidth: 0
GlyphClass: 2
Flags: W
LayerCount: 2
Fore
SplineSet
112 0 m 1
 490 0 l 1
 490 958 l 1
 626 958 l 1
 626 1217 l 1
 490 1217 l 1
 490 1225 l 2
 490 1282 501 1301 517 1301 c 0
 546 1301 632 1302 707 1299 c 1
 707 0 l 1
 1085 0 l 1
 1085 1580 l 1
 723 1595 517 1594 403 1594 c 0
 133 1594 121 1355 114 1187 c 0
 114 1174 112 1230 112 1217 c 1
 80 1217 l 1
 80 958 l 1
 112 958 l 1
 112 0 l 1
EndSplineSet
EndChar

StartChar: uniFB03
Encoding: 518 64259 512
Width: 1814
VWidth: 0
GlyphClass: 2
Flags: W
LayerCount: 2
Fore
SplineSet
112 0 m 1
 490 0 l 1
 490 958 l 1
 718 958 l 1
 718 0 l 1
 1095 0 l 1
 1095 958 l 1
 1362 958 l 1
 1362 0 l 1
 1739 0 l 1
 1739 1217 l 1
 1095 1217 l 1
 1095 1225 l 2
 1095 1308 1129 1303 1151 1303 c 0
 1170 1303 1240 1297 1236 1298 c 1
 1236 1581 l 1
 1250 1577 1116 1594 1009 1594 c 0
 784 1594 727 1427 719 1203 c 0
 719 1190 718 1230 718 1217 c 1
 490 1217 l 1
 490 1225 l 2
 490 1308 524 1303 545 1303 c 0
 565 1303 635 1297 630 1298 c 1
 630 1581 l 1
 645 1577 510 1594 404 1594 c 0
 178 1594 121 1427 114 1203 c 0
 114 1190 112 1230 112 1217 c 1
 80 1217 l 1
 80 958 l 1
 112 958 l 1
 112 0 l 1
1362 1256 m 1
 1739 1256 l 1
 1739 1593 l 1
 1362 1593 l 1
 1362 1256 l 1
EndSplineSet
EndChar

StartChar: uniFB04
Encoding: 519 64260 513
Width: 1809
VWidth: 0
GlyphClass: 2
Flags: W
LayerCount: 2
Fore
SplineSet
112 0 m 1
 490 0 l 1
 490 958 l 1
 771 958 l 1
 771 0 l 1
 1148 0 l 1
 1148 958 l 1
 1261 958 l 1
 1261 1217 l 1
 1148 1217 l 1
 1148 1225 l 2
 1148 1282 1183 1301 1253 1301 c 0
 1267 1301 1302 1302 1366 1300 c 1
 1366 0 l 1
 1743 0 l 1
 1743 1566 l 1
 1382 1596 1192 1594 1088 1594 c 0
 796 1594 780 1355 772 1187 c 0
 772 1174 771 1230 771 1217 c 1
 490 1217 l 1
 490 1225 l 2
 490 1308 524 1303 545 1303 c 0
 565 1303 635 1297 630 1298 c 1
 630 1581 l 1
 645 1577 510 1594 404 1594 c 0
 178 1594 121 1427 114 1203 c 0
 114 1190 112 1230 112 1217 c 1
 80 1217 l 1
 80 958 l 1
 112 958 l 1
 112 0 l 1
EndSplineSet
EndChar

StartChar: v
Encoding: 86 118 517
Width: 860
VWidth: 0
GlyphClass: 2
Flags: W
LayerCount: 2
Fore
SplineSet
248 0 m 1
 620 0 l 1
 856 1217 l 1
 503 1217 l 1
 438 496 l 1
 356 1217 l 1
 4 1217 l 1
 248 0 l 1
EndSplineSet
EndChar

StartChar: w
Encoding: 87 119 518
Width: 1189
VWidth: 0
GlyphClass: 2
Flags: W
LayerCount: 2
Fore
SplineSet
187 0 m 1
 500 0 l 1
 598 608 l 1
 680 0 l 1
 999 0 l 1
 1172 1217 l 1
 886 1217 l 1
 795 557 l 1
 741 1217 l 1
 475 1217 l 1
 403 578 l 1
 330 1217 l 1
 18 1217 l 1
 187 0 l 1
EndSplineSet
EndChar

StartChar: x
Encoding: 88 120 523
Width: 883
VWidth: 0
GlyphClass: 2
Flags: W
LayerCount: 2
Fore
SplineSet
-18 0 m 1
 283 0 l 1
 434 433 l 1
 613 544 l 1
 858 1216 l 1
 588 1216 l 1
 424 759 l 1
 251 714 l 1
 -18 0 l 1
520 0 m 1
 901 0 l 1
 377 1216 l 1
 -1 1216 l 1
 520 0 l 1
EndSplineSet
EndChar

StartChar: y
Encoding: 89 121 524
Width: 933
VWidth: 0
GlyphClass: 2
Flags: W
LayerCount: 2
Fore
SplineSet
139 -361 m 1
 194 -361 l 1
 390 -364 592 -303 644 -65 c 2
 922 1216 l 1
 577 1216 l 1
 478 568 l 1
 331 1216 l 1
 -14 1216 l 1
 278 190 l 2
 289 153 323 26 323 -5 c 0
 323 -99 250 -109 139 -109 c 1
 139 -361 l 1
EndSplineSet
EndChar

StartChar: yen
Encoding: 101 165 528
Width: 1059
VWidth: 0
GlyphClass: 2
Flags: W
LayerCount: 2
Fore
SplineSet
362 0 m 1
 673 0 l 1
 673 247 l 1
 843 247 l 1
 843 468 l 1
 673 468 l 1
 673 518 l 1
 843 518 l 1
 843 737 l 1
 721 737 l 1
 974 1707 l 1
 656 1707 l 1
 705 1883 469 772 518 948 c 1
 377 1707 l 1
 62 1707 l 1
 189 1236 181 1206 308 737 c 1
 193 737 l 1
 193 518 l 1
 362 518 l 1
 362 468 l 1
 193 468 l 1
 193 247 l 1
 362 247 l 1
 362 0 l 1
EndSplineSet
EndChar

StartChar: z
Encoding: 90 122 530
Width: 778
VWidth: 0
GlyphClass: 2
Flags: W
LayerCount: 2
Fore
SplineSet
56 0 m 1
 732 0 l 1
 732 271 l 1
 440 271 l 1
 730 984 l 1
 730 1216 l 1
 77 1216 l 1
 77 946 l 1
 349 946 l 1
 56 238 l 1
 56 0 l 1
EndSplineSet
EndChar

StartChar: zero
Encoding: 16 48 534
Width: 1059
VWidth: 0
GlyphClass: 2
Flags: W
LayerCount: 2
Fore
SplineSet
529 312 m 0
 454 312 457 468 457 500 c 2
 457 1148 l 2
 457 1185 443 1337 529 1337 c 0
 613 1337 602 1185 602 1148 c 2
 602 500 l 2
 602 467 605 312 529 312 c 0
529 -35 m 0
 828 -35 994 211 994 487 c 2
 994 1162 l 2
 994 1449 847 1686 529 1686 c 0
 209 1686 62 1451 62 1162 c 2
 62 487 l 2
 62 207 223 -35 529 -35 c 0
EndSplineSet
EndChar

StartChar: U+0393
Encoding: 564 915 547
Width: 911
VWidth: 0
Flags: HW
LayerCount: 2
UndoRedoHistory
Layer: 1
Undoes
EndUndoes
Redoes
EndRedoes
EndUndoRedoHistory
Fore
SplineSet
195 1632 m 1
 699 1632 l 1
 699 1688 l 1
 195 1688 l 1
 195 1632 l 1
EndSplineSet
Refer: 381 -1 N 1 0 0 1 0 0 2
EndChar

StartChar: U+0491
Encoding: 561 1169 548
Width: 584
VWidth: 0
Flags: HW
LayerCount: 2
UndoRedoHistory
Layer: 1
Undoes
EndUndoes
Redoes
EndRedoes
EndUndoRedoHistory
Fore
SplineSet
522 1152 m 1
 167 1152 l 1
 167 1095 l 1
 522 1095 l 1
 522 1152 l 1
EndSplineSet
Refer: 288 -1 N 1 0 0 1 0 0 2
EndChar

StartChar: U+0490
Encoding: 560 1168 549
Width: 763
VWidth: 0
Flags: HW
LayerCount: 2
UndoRedoHistory
Layer: 1
Undoes
EndUndoes
Redoes
EndRedoes
EndUndoRedoHistory
Fore
SplineSet
195 1632 m 1
 699 1632 l 1
 699 1688 l 1
 195 1688 l 1
 195 1632 l 1
EndSplineSet
Refer: 381 -1 N 1 0 0 1 0 0 2
EndChar

StartChar: U+03a0
Encoding: 565 928 552
Width: 1164
VWidth: 0
Flags: HW
LayerCount: 2
UndoRedoHistory
Layer: 1
Undoes
EndUndoes
Redoes
EndRedoes
EndUndoRedoHistory
Fore
SplineSet
156 0 m 1
 310 0 l 1
 310 1600 l 1
 860 1600 l 1
 860 0 l 1
 1014 0 l 1
 1014 1683 l 1
 156 1683 l 1
 156 0 l 1
EndSplineSet
EndChar

StartChar: U+25ca
Encoding: 553 9674 555
Width: 686
VWidth: 0
Flags: HW
LayerCount: 2
UndoRedoHistory
Layer: 1
Undoes
EndUndoes
Redoes
EndRedoes
EndUndoRedoHistory
Fore
SplineSet
319 0 m 1
 381 0 l 1
 655 1152 l 1
 593 1152 l 1
 349 100 l 1
 97 1152 l 1
 31 1152 l 1
 319 0 l 1
EndSplineSet
EndChar

StartChar: U+212e
Encoding: 541 8494 556
Width: 773
VWidth: 0
Flags: HW
LayerCount: 2
UndoRedoHistory
Layer: 1
Undoes
EndUndoes
Redoes
EndRedoes
EndUndoRedoHistory
Fore
SplineSet
396 -20 m 0
 612 -20 671 116 671 304 c 2
 671 395 l 1
 608 395 l 1
 608 301 l 2
 608 28 476 30 396 30 c 0
 258 30 178 95 178 430 c 2
 178 743 l 2
 178 1056 255 1122 400 1122 c 0
 589 1122 608 966 608 729 c 2
 608 619 l 1
 669 619 l 1
 672 719 l 1
 672 1065 590 1172 400 1172 c 0
 248 1172 114 1127 114 733 c 2
 114 431 l 2
 114 42 245 -20 396 -20 c 0
146 663 m 1
 146 619 l 1
 639 619 l 1
 639 663 l 1
 146 663 l 1
EndSplineSet
EndChar

StartChar: U+2206
Encoding: 543 8710 558
Width: 686
VWidth: 0
Flags: HW
LayerCount: 2
UndoRedoHistory
Layer: 1
Undoes
EndUndoes
Redoes
EndRedoes
EndUndoRedoHistory
Fore
SplineSet
319 0 m 1
 381 0 l 1
 655 1152 l 1
 593 1152 l 1
 349 100 l 1
 97 1152 l 1
 31 1152 l 1
 319 0 l 1
EndSplineSet
EndChar

StartChar: U+2211
Encoding: 544 8721 559
Width: 763
VWidth: 0
Flags: HW
LayerCount: 2
UndoRedoHistory
Layer: 1
Undoes
EndUndoes
Redoes
EndRedoes
EndUndoRedoHistory
Fore
SplineSet
194 0 m 1
 699 0 l 1
 699 56 l 1
 194 56 l 1
 194 0 l 1
196 844 m 1
 565 844 l 1
 565 899 l 1
 196 899 l 1
 196 844 l 1
195 1632 m 1
 699 1632 l 1
 699 1688 l 1
 195 1688 l 1
 195 1632 l 1
EndSplineSet
Refer: 381 -1 N 1 0 0 1 0 0 2
EndChar

StartChar: U+221a
Encoding: 546 8730 560
Width: 686
VWidth: 0
Flags: HW
LayerCount: 2
UndoRedoHistory
Layer: 1
Undoes
EndUndoes
Redoes
EndRedoes
EndUndoRedoHistory
Fore
SplineSet
319 0 m 1
 381 0 l 1
 655 1152 l 1
 593 1152 l 1
 349 100 l 1
 97 1152 l 1
 31 1152 l 1
 319 0 l 1
EndSplineSet
EndChar

StartChar: U+221e
Encoding: 547 8734 561
Width: 699
VWidth: 0
Flags: HW
LayerCount: 2
UndoRedoHistory
Layer: 1
Undoes
EndUndoes
Redoes
EndRedoes
EndUndoRedoHistory
Fore
SplineSet
348 1172 m 0
 195 1172 95 1086 95 935 c 0
 95 823 172 733 276 646 c 2
 387 553 l 2
 532 432 591 343 591 245 c 0
 591 105 514 30 380 30 c 0
 243 30 157 128 118 316 c 1
 65 300 l 1
 97 119 200 -20 377 -20 c 0
 541 -20 651 80 651 240 c 1
 647 418 531 501 416 600 c 2
 303 697 l 2
 220 769 156 842 156 948 c 0
 156 1068 235 1122 350 1122 c 0
 465 1122 537 1053 558 886 c 1
 612 898 l 1
 584 1063 518 1172 348 1172 c 0
EndSplineSet
EndChar

StartChar: U+222b
Encoding: 548 8747 562
Width: 643
VWidth: 0
Flags: W
HStem: 1348 277<312 576>
VStem: 16 615<958 1216 958 1216>
LayerCount: 2
UndoRedoHistory
Layer: 1
Undoes
EndUndoes
Redoes
EndRedoes
EndUndoRedoHistory
Fore
SplineSet
631 1339 m 1
 631 1615 l 1
 569 1622 515 1625 467 1625 c 0
 157 1625 119 1486 119 1282 c 2
 119 1216 l 1
 16 1216 l 1
 16 958 l 1
 119 958 l 1
 119 0 l 1
 491 0 l 1
 491 958 l 1
 631 958 l 1
 631 1216 l 1
 491 1216 l 1
 491 1278 l 2
 491 1334 526 1348 564 1348 c 0
 588 1348 613 1342 631 1339 c 1
EndSplineSet
EndChar

StartChar: U+2248
Encoding: 549 8776 563
Width: 693
VWidth: 0
Flags: HW
LayerCount: 2
UndoRedoHistory
Layer: 1
Undoes
EndUndoes
Redoes
EndRedoes
EndUndoRedoHistory
Fore
SplineSet
401 1341 m 0
 602 1341 592 1517 597 1485 c 1
 497 1485 l 1
 487 1420 454 1410 418 1410 c 0
 373 1410 305 1493 282 1493 c 0
 108 1493 97 1352 94 1353 c 1
 187 1353 l 1
 197 1417 225 1421 255 1421 c 0
 290 1421 342 1341 401 1341 c 0
EndSplineSet
EndChar

StartChar: U+0192
Encoding: 534 402 564
Width: 643
VWidth: 0
Flags: W
HStem: 1348 277<312 576>
VStem: 16 615<958 1216 958 1216>
LayerCount: 2
UndoRedoHistory
Layer: 1
Undoes
EndUndoes
Redoes
EndRedoes
EndUndoRedoHistory
Fore
SplineSet
631 1339 m 1
 631 1615 l 1
 569 1622 515 1625 467 1625 c 0
 157 1625 119 1486 119 1282 c 2
 119 1216 l 1
 16 1216 l 1
 16 958 l 1
 119 958 l 1
 119 0 l 1
 491 0 l 1
 491 958 l 1
 631 958 l 1
 631 1216 l 1
 491 1216 l 1
 491 1278 l 2
 491 1334 526 1348 564 1348 c 0
 588 1348 613 1342 631 1339 c 1
EndSplineSet
EndChar

StartChar: U+02c9
Encoding: 535 713 566
Width: 0
VWidth: 0
Flags: W
HStem: 1341 204<-237 245 -237 245>
VStem: -237 482<1341 1545 1341 1545>
LayerCount: 2
UndoRedoHistory
Layer: 1
Undoes
EndUndoes
Redoes
EndRedoes
EndUndoRedoHistory
Fore
SplineSet
-237 1341 m 1
 245 1341 l 1
 245 1545 l 1
 -237 1545 l 1
 -237 1341 l 1
EndSplineSet
EndChar

